<svg height="58" viewBox="0 0 56 58" width="56" xmlns="http://www.w3.org/2000/svg"><g id="Page-1" fill="none" fill-rule="evenodd"><g id="023---Schedule-Deadline" fill="rgb(0,0,0)" fill-rule="nonzero"><path id="Rectangle-path" d="m5.016 24h3.985v3h-3.985z"/><path id="Shape" d="m38 5v4h-38v-4c0-.55228475.44771525-1 1-1v1c0 1.65685425 1.34314575 3 3 3s3-1.34314575 3-3c0 1.65685425 1.34314575 3 3 3 1.6568542 0 3-1.34314575 3-3 0 1.65685425 1.3431458 3 3 3s3-1.34314575 3-3c0 1.65685425 1.3431458 3 3 3s3-1.34314575 3-3c0 1.65685425 1.3431458 3 3 3s3-1.34314575 3-3c0 1.65685425 1.3431458 3 3 3s3-1.34314575 3-3v-1c.5522847 0 1 .44771525 1 1z"/><path id="Rectangle-path" d="m5.016 33h3.985v3h-3.985z"/><path id="Rectangle-path" d="m17 24h3.985v3h-3.985z"/><path id="Rectangle-path" d="m5.016 15h3.985v3h-3.985z"/><path id="Rectangle-path" d="m17 15h3.985v3h-3.985z"/><path id="Shape" d="m50 42c0-.5522847.4477153-1 1-1h.95c-.1180735-1.422712-.4942077-2.8120363-1.11-4.1l-.82.47c-.148484.0870586-.3178876.1320024-.49.13-.4503352-.0001324-.8450264-.3012616-.96411-.7355666s.0668217-.8946301.45411-1.1244334l.83-.48c-.8182502-1.1699466-1.8373369-2.1856477-3.01-3l-.48.82c-.1761919.3088972-.5043864.499708-.86.5-.1759398-.0028448-.3481647-.0510678-.5-.14-.4761364-.2746085-.6413883-.8820208-.37-1.36l.47-.82c-1.2879637-.6157923-2.677288-.9919265-4.1-1.11v.95c0 .5522847-.4477153 1-1 1s-1-.4477153-1-1v-.95c-1.4256871.1193544-2.8180658.4953983-4.11 1.11l.47.82c.1347392.2275837.1725035.4997221.1048254.755395s-.235136.4734877-.4648254.604605c-.1518353.0889322-.3240602.1371552-.5.14-.3583554.0001843-.6897537-.1902745-.87-.5l-.47-.82c-1.1726631.8143523-2.1917498 1.8300534-3.01 3l.82.48c.4761364.2746085.6413883.8820208.37 1.36-.2795595.4760311-.8888033.6405714-1.37.37l-.82-.47c-.6080288 1.2902085-.9805532 2.6787086-1.1 4.1h.95c.5522847 0 1 .4477153 1 1s-.4477153 1-1 1h-.95c.1207428 1.4242681.4931792 2.8158258 1.1 4.11l.82-.47c.2293087-.1343739.5026768-.1719353.7597298-.1043886.257053.0675468.4766422.2346444.6102702.4643886.2723004.4809795.1074157 1.0914986-.37 1.37l-.82.47c.8207719 1.1706443 1.8393557 2.1892281 3.01 3.01l.47-.82c.2785014-.4774157.8890205-.6423004 1.37-.37.2297442.133628.3968418.3532172.4643886.6102702.0675467.257053.0299853.5304211-.1043886.7597298l-.47.82c1.2941742.6068208 2.6857319.9792572 4.11 1.1v-.95c0-.5522847.4477153-1 1-1s1 .4477153 1 1v.95c1.4212914-.1194468 2.8097915-.4919712 4.1-1.1l-.47-.82c-.2723004-.4809795-.1074157-1.0914986.37-1.37.4779792-.2713883 1.0853915-.1061364 1.36.37l.48.82c1.1706443-.8207719 2.1892281-1.8393557 3.01-3.01l-.83-.47c-.4751892-.2808259-.6357495-.8918472-.36-1.37.1315049-.2292741.3493115-.3963704.6048221-.4640055.2555105-.0676352.5274629-.030181.7551779.1040055l.82.47c.6146017-1.2919342.9906456-2.6843129 1.11-4.11h-.95c-.5522847 0-1-.4477153-1-1zm-6.29 3.71c-.1911916.1834154-.4450715.2871128-.71.29-.2652977-.0010428-.519836-.1050091-.71-.29l-3-3c-.2672658-.2668037-.3602565-.6620146-.24-1.02l2-6c.1715258-.5243985.7353618-.8107915 1.26-.64.5265023.1750471.8125506.7426742.64 1.27l-1.81 5.41 2.57 2.56c.3899779.3930079.3899779 1.0269921 0 1.42z"/><path id="Shape" d="m47.4 22.92c-.7062295 1.2275306-1.9858453 2.014118-3.4 2.09-2.29 0-4.23-2.33-4.82-5.81-.0156017-.0812158-.0670511-.15104-.14-.19-.0225542-.0074644-.0462579-.0108507-.07-.01-.0400708.0008575-.078738.0149183-.11.04-4.29 3.21-17.99 14.69-14.19 27.56 1.819637 5.9958141 6.9548917 10.3896567 13.16 11.26 4.5799159.6236041 9.2058631-.7626142 12.6880828-3.8021302 3.4822198-3.039516 5.4808716-7.4356938 5.4819172-12.0578698 0-6.2-4.25-14.15-8.6-19.08zm-7.4 33.08c-7.7319865 0-14-6.2680135-14-14s6.2680135-14 14-14 14 6.2680135 14 14c-.2095283 7.6435151-6.3564849 13.7904717-14 14z"/><path id="Shape" d="m0 11v30c0 .5522847.44771525 1 1 1h20.99c-.0045492-1.4954526.1700273-2.986068.52-4.44.01-.06.03-.11.04-.17 2.23-9.29 10.74-16.67 15.11-19.95.1076754-.0729656.2214281-.1365333.34-.19v-6.25zm11 25c-.0032948 1.1032019-.8967981 1.9967052-2 2h-3.98c-1.1045695 0-2-.8954305-2-2v-3c0-1.1045695.8954305-2 2-2h3.98c1.1032019.0032948 1.9967052.8967981 2 2zm0-9c-.0032948 1.1032019-.8967981 1.9967052-2 2h-3.98c-1.1045695 0-2-.8954305-2-2v-3c0-1.1045695.8954305-2 2-2h3.98c1.1032019.0032948 1.9967052.8967981 2 2zm0-9c-.0032948 1.1032019-.8967981 1.9967052-2 2h-3.98c-1.1045695 0-2-.8954305-2-2v-3c0-1.1045695.8954305-2 2-2h3.98c1.1032019.0032948 1.9967052.8967981 2 2zm9.98 19.2c-.0950537.4656663-.5047314.800097-.98.8h-3c-1.1032019-.0032948-1.9967052-.8967981-2-2v-3c.0032948-1.1032019.8967981-1.9967052 2-2h3.98c.5522847 0 1 .4477153 1 1s-.4477153 1-1 1h-3.98v3h3c.5522847 0 1 .4477153 1 1-.0012038.0671004-.0078927.13399-.02.2zm2-10.2c0 1.1045695-.8954305 2-2 2h-3.98c-1.1032019-.0032948-1.9967052-.8967981-2-2v-3c.0032948-1.1032019.8967981-1.9967052 2-2h3.98c1.1045695 0 2 .8954305 2 2zm0-9c0 1.1045695-.8954305 2-2 2h-3.98c-1.1032019-.0032948-1.9967052-.8967981-2-2v-3c.0032948-1.1032019.8967981-1.9967052 2-2h3.98c1.1045695 0 2 .8954305 2 2zm12.02-2c0 .5522847-.4477153 1-1 1s-1-.4477153-1-1v-1h-4.02v3h2.02c.5522847 0 1 .4477153 1 1s-.4477153 1-1 1h-2.02c-1.1032019-.0032948-1.9967052-.8967981-2-2v-3c.0032948-1.1032019.8967981-1.9967052 2-2h4.02c1.1032019.0032948 1.9967052.8967981 2 2z"/><rect id="Rectangle-path" height="6" rx="1" width="2" x="3.001"/><rect id="Rectangle-path" height="6" rx="1" width="2" x="9.001"/><rect id="Rectangle-path" height="6" rx="1" width="2" x="15.001"/><rect id="Rectangle-path" height="6" rx="1" width="2" x="21.001"/><rect id="Rectangle-path" height="6" rx="1" width="2" x="27.001"/><rect id="Rectangle-path" height="6" rx="1" width="2" x="33.001"/></g></g></svg>