<svg id="Layer_1" enable-background="new 0 0 512.292 512.292" height="512" viewBox="0 0 512.292 512.292" width="512" xmlns="http://www.w3.org/2000/svg"><g><path d="m220.851 239.607c9.931-.344 9.923-14.66 0-15h-20.397c-4.143 0-7.5 3.358-7.5 7.5v48.409c0 4.142 3.357 7.5 7.5 7.5h20.397c9.931-.344 9.923-14.66 0-15h-12.897v-9.205h11.394c9.931-.344 9.923-14.66 0-15h-11.394v-9.205h12.897z"/><path d="m422.004 287.656h20.398c9.931-.344 9.923-14.66 0-15h-12.898v-9.204h11.394c9.931-.344 9.923-14.66 0-15h-11.394v-9.205h12.898c9.931-.344 9.923-14.66 0-15h-20.398c-4.143 0-7.5 3.358-7.5 7.5v48.409c0 4.142 3.358 7.5 7.5 7.5z"/><path d="m315.802 225.107h-13.428c-4.188 0-7.5 3.388-7.5 7.549v46.59c0 4.306 2.895 8.271 7.625 8.271.406-.001 9.991-.039 13.826-.105 34.862-.647 34.885-62.833-.523-62.305zm.262 47.306c-1.438.025-3.773.046-6.108.063l-.065-32.37h5.912c10.806 0 11.646 12.403 11.646 16.205-.001 7.916-3.522 15.965-11.385 16.102z"/><path d="m177.263 224.856c-3.929-1.306-8.176.822-9.481 4.753l-10.011 30.135-10.525-30.32c-3.58-9.265-17.102-4.57-14.17 4.919l16.721 48.17c2.662 7.501 13.701 7.391 16.269-.158l15.951-48.018c1.306-3.929-.823-8.175-4.754-9.481z"/><path d="m364.13 284.485c3.891 2.484 8.275 3.748 13.031 3.754 12.634 0 24.788-9.598 24.788-22.772v-33.583c0-4.142-3.357-7.5-7.5-7.5s-7.5 3.358-7.5 7.5v33.583c0 4.916-5.427 7.772-9.768 7.772-4.019-.005-9.18-3.32-9.18-7.737v-33.618c0-4.142-3.357-7.5-7.5-7.5s-7.5 3.358-7.5 7.5v33.618c.001 7.878 3.744 14.265 11.129 18.983z"/><path d="m282.32 244.581c0-11.137-9.383-20.197-20.915-20.197h-12.982c-4.148-.009-7.516 3.352-7.516 7.5v48.855c.335 9.911 14.653 9.942 15 0v-10.137l13.283 15.092c6.081 6.91 17.804-2.474 11.26-9.91l-11.044-12.549c7.572-3.04 12.914-10.253 12.914-18.654zm-20.915-5.197c7.82.325 7.815 10.071 0 10.394-1.304 0-3.35.007-5.434.017-.013-3.47-.022-6.94-.026-10.411z"/><path d="m95.178 224.384c-17.605 0-31.928 14.323-31.928 31.928 1.753 42.356 62.109 42.344 63.856 0 0-17.605-14.322-31.928-31.928-31.928zm0 48.855c-9.334 0-16.928-7.594-16.928-16.927.93-22.457 32.929-22.45 33.855 0 .001 9.333-7.593 16.927-16.927 16.927z"/><path d="m30.077 256.243c.201 200.608 243.829 301.514 385.807 159.804 87.664-84.121 87.678-235.489-.003-319.61-141.992-141.708-385.615-40.791-385.804 159.806zm375.199 149.2c-108.189 109.477-296.734 66.694-347.913-77.923h272.068c9.931-.344 9.923-14.66 0-15h-276.805c-10.041-36.015-10.041-76.538 0-112.554h406.9c10.041 36.015 10.041 76.538 0 112.554h-88.762c-9.931.344-9.923 14.66 0 15h84.025c-10.367 28.968-27.111 55.521-49.513 77.923zm-149.199-360.2c87.288-1.287 170.266 57.703 198.714 139.723h-397.428c28.456-82.028 111.418-141.003 198.714-139.723z"/><path d="m256.077 512.243c137.603 2.834 258.845-118.391 255.998-256.002.932-193.821-210.683-318.342-379.795-224.108-3.624 2.006-4.936 6.57-2.93 10.194 2.007 3.624 6.571 4.934 10.193 2.93 159.225-88.692 358.408 28.529 357.532 210.989 2.672 129.533-111.456 243.681-241.001 240.996-228.615-1.079-327.922-289.449-148.262-430.999 3.264-2.551 3.842-7.264 1.291-10.528-2.55-3.265-7.264-3.841-10.527-1.292-190.633 151.766-86.072 455.642 157.501 457.82z"/><path d="m397.315 350.541c-3.338-2.453-8.031-1.734-10.484 1.603-64.124 88.128-197.408 88.1-261.508 0-2.453-3.338-7.148-4.056-10.484-1.603-3.338 2.453-4.056 7.146-1.604 10.485 16.126 21.948 37.398 40.152 61.517 52.643 49.857 26.212 112.793 26.211 162.65 0 24.118-12.491 45.391-30.694 61.517-52.643 2.451-3.339 1.734-8.032-1.604-10.485z"/><path d="m114.838 161.945c3.338 2.453 8.031 1.735 10.484-1.604 64.124-88.127 197.408-88.1 261.508 0 2.342 3.189 7.244 3.986 10.484 1.604 3.338-2.453 4.056-7.146 1.604-10.485-16.126-21.949-37.398-40.152-61.517-52.643-49.858-26.212-112.793-26.211-162.65 0-24.118 12.491-45.391 30.694-61.517 52.643-2.451 3.339-1.734 8.033 1.604 10.485z"/><path d="m211.747 146.572c-9.652 0-9.668 15 0 15 9.652 0 9.668-15 0-15z"/><path d="m256.077 146.572c-9.652 0-9.668 15 0 15 9.651 0 9.667-15 0-15z"/><path d="m300.406 146.572c-9.652 0-9.668 15 0 15 9.652 0 9.668-15 0-15z"/><path d="m211.747 365.914c9.652 0 9.668-15 0-15-9.652 0-9.668 15 0 15z"/><path d="m256.077 365.914c9.652 0 9.668-15 0-15-9.652 0-9.668 15 0 15z"/><path d="m300.406 365.914c9.652 0 9.668-15 0-15-9.652 0-9.668 15 0 15z"/></g></svg>