<svg id="Solid" height="512" viewBox="0 0 512 512" width="512" xmlns="http://www.w3.org/2000/svg"><g><path d="m46.224 452.817 73.776-34.381v-42.436h-88v67.753a10 10 0 0 0 14.224 9.064z"/><path d="m200 312.206v130.625l55.011 20.629 24.989-9.298v-106.045l-50.541-36.1z"/><path d="m32 240h88v56h-88z"/><path d="m200 240h66.584l23.28-58.2-31.478 9.837a8.007 8.007 0 0 1 -4.772 0l-25.178-7.868-28.436 42.653z"/><path d="m128 176c29.776 0 48-10.359 48-16 0-5.116-14.993-14.114-40-15.743v-48.257h62a2 2 0 0 0 2-2v-46h-78a2 2 0 0 0 -2 2v94.257c-25.007 1.629-40 10.627-40 15.743 0 5.641 18.224 16 48 16z"/><path d="m353.015 395.711c-2.382-2.747-4.82-5.66-7.262-8.713-22.397-27.998-33.753-53.229-33.753-74.998a71.872 71.872 0 0 1 25.589-55l26.213-98.3-54.243 16.951-30.131 75.327a8 8 0 0 1 -7.428 5.022h-80a8 8 0 0 1 -8-8v-24a8 8 0 0 1 1.343-4.437l27.179-40.763-24.161-7.551c-2.992 4.4-8.312 9.094-17.612 13.08-11.549 4.945-26.732 7.671-42.749 7.671s-31.2-2.726-42.749-7.676c-6.893-2.954-11.6-6.3-14.793-9.621l-32.048 12.326a10 10 0 0 0 -6.41 9.334v27.637h96a8 8 0 0 1 8 8v72a8 8 0 0 1 -8 8h-96v48h96a8 8 0 0 1 8 8v50.831l48 18v-132.574a8 8 0 0 1 7.949-8l40-.257h.051a8 8 0 0 1 4.651 1.49l56 40a8 8 0 0 1 3.349 6.51v104.208l29.226-10.874a20.528 20.528 0 0 1 -5.226-13.334c0-12.511 12.57-22.971 33.015-28.289z"/><path d="m456 312c0 12.274-3.611 25.649-10.774 40h34.774v-48h-24.442a72.393 72.393 0 0 1 .442 8z"/><circle cx="384" cy="312" r="16"/><path d="m383.728 152.467-1.862.581-24.554 92.079a72.01 72.01 0 0 1 94.575 42.873h28.113v-91.637a10 10 0 0 0 -6.41-9.334z"/><path d="m402.373 409.417c-7.447 7.631-12.724 12.27-13.105 12.6a8 8 0 0 1 -10.536 0c-.381-.334-5.658-4.973-13.105-12.6-19.116 3.075-29.627 10.383-29.627 14.583 0 5.641 18.224 16 48 16s48-10.359 48-16c0-4.2-10.511-11.508-29.627-14.583z"/><path d="m422.247 387c-2.442 3.053-4.88 5.966-7.262 8.713 20.445 5.316 33.015 15.776 33.015 28.287 0 3.385-.98 8.556-5.68 13.859l24.09 9.266a10 10 0 0 0 13.59-9.334v-69.791h-43.973a234.547 234.547 0 0 1 -13.78 19z"/><path d="m358.247 377a297.289 297.289 0 0 0 25.753 28.091 297.657 297.657 0 0 0 25.911-28.284c19.689-24.657 30.089-47.067 30.089-64.807a56 56 0 0 0 -112 0c0 17.791 10.459 40.268 30.247 65zm25.753-97a32 32 0 1 1 -32 32 32.036 32.036 0 0 1 32-32z"/></g></svg>