<svg xmlns="http://www.w3.org/2000/svg" xmlns:xlink="http://www.w3.org/1999/xlink" viewBox="0 0 21 8"><defs><style>.cls-1{fill:url(#linear-gradient);}.cls-2{fill:url(#linear-gradient-2);}.cls-3{fill:none;}.cls-4{isolation:isolate;}.cls-5{clip-path:url(#clip-path);}.cls-6{fill:#009688;}.cls-7{mix-blend-mode:soft-light;}.cls-8{fill:#fff;}.cls-9{clip-path:url(#clip-path-3);}.cls-10{mix-blend-mode:overlay;}.cls-11,.cls-12,.cls-13,.cls-14,.cls-15{fill:#303030;}.cls-11,.cls-16{opacity:0.42;}.cls-12,.cls-18{opacity:0.65;}.cls-13,.cls-19{opacity:0.87;}.cls-14,.cls-20{opacity:0.31;}.cls-15{opacity:0.3;}.cls-16,.cls-17,.cls-18,.cls-19,.cls-20{fill:#e0e0e0;}.cls-17{opacity:0.57;}.cls-21{mask:url(#mask);}.cls-22{mask:url(#mask-2);}</style><linearGradient id="linear-gradient" x1="-368.55" y1="1351.74" x2="-320.33" y2="1351.74" gradientTransform="matrix(0, 1, 1, 0, -1335.03, 351.06)" gradientUnits="userSpaceOnUse"><stop offset="0"/><stop offset="0.08" stop-color="#090909"/><stop offset="0.22" stop-color="#212121"/><stop offset="0.4" stop-color="#484848"/><stop offset="0.6" stop-color="#7f7f7f"/><stop offset="0.82" stop-color="#c4c4c4"/><stop offset="1" stop-color="#fff"/></linearGradient><linearGradient id="linear-gradient-2" x1="-1224.68" y1="-561.32" x2="-1176.46" y2="-561.32" gradientTransform="matrix(0, -1, -1, 0, -558.04, -1179.4)" xlink:href="#linear-gradient"/><clipPath id="clip-path"><rect class="cls-3" width="21" height="8"/></clipPath><clipPath id="clip-path-3"><rect class="cls-3" y="-0.1" width="21" height="28"/></clipPath><mask id="mask" x="3.64" y="-17.48" width="26.15" height="48.22" maskUnits="userSpaceOnUse"><rect class="cls-1" x="3.64" y="-17.48" width="26.15" height="48.22"/></mask><mask id="mask-2" x="-9.79" y="-2.94" width="26.15" height="48.22" maskUnits="userSpaceOnUse"><rect class="cls-2" x="-9.79" y="-2.94" width="26.15" height="48.22"/></mask></defs><title>bg</title><g class="cls-4"><g id="Layer_1" data-name="Layer 1"><g class="cls-5"><rect class="cls-6" y="-0.1" width="21" height="13.21"/><g class="cls-7"><path class="cls-8" d="M18.19,9.32a20.71,20.71,0,0,1,1.91,3.79h0A20,20,0,0,0,18.21,9.3a17.93,17.93,0,0,1-2.12-4.44A4.73,4.73,0,0,1,16,2.18,4.29,4.29,0,0,1,17.92-.1h-.06A4.28,4.28,0,0,0,16,2.18a3.45,3.45,0,0,0-.17,1.14,5.78,5.78,0,0,0,.22,1.54A17.61,17.61,0,0,0,18.19,9.32Z"/><path class="cls-8" d="M21,13.11h0v0c-.21-.88-.5-1.74-.78-2.59A17.9,17.9,0,0,1,19.1,5.67a4.81,4.81,0,0,1,.53-2.62A3.8,3.8,0,0,1,21,1.69v0A3.84,3.84,0,0,0,19.59,3a3.66,3.66,0,0,0-.4,1.08,5.52,5.52,0,0,0-.12,1.55,17.9,17.9,0,0,0,1.12,4.81C20.48,11.35,20.76,12.22,21,13.11Z"/></g><g class="cls-7"><path class="cls-8" d="M.88,8.93a13.82,13.82,0,0,0-.42,3.89,1.45,1.45,0,0,0,0,.29h0c0-.1,0-.2,0-.3s0-.39,0-.6A15.7,15.7,0,0,1,.92,8.94a13.52,13.52,0,0,0,.42-3.8A8.82,8.82,0,0,0,0,1.18v.07A8.87,8.87,0,0,1,1.31,5.14,14.23,14.23,0,0,1,.88,8.93Z"/><path class="cls-8" d="M1.79-.1h0A8.92,8.92,0,0,1,2.25,4,14.07,14.07,0,0,1,1,7.59,18.34,18.34,0,0,0,0,10.2v-.14A18.31,18.31,0,0,1,1,7.58,15,15,0,0,0,2.23,4,8.93,8.93,0,0,0,1.79-.1Z"/></g><g class="cls-9"><g class="cls-10"><polygon class="cls-11" points="17.73 5.21 19.68 3.26 18.97 0.59 16.3 -0.13 14.35 1.83 15.06 4.5 17.73 5.21"/><polygon class="cls-12" points="19.62 10.43 20.56 9.49 20.22 8.2 18.93 7.85 17.98 8.8 18.33 10.09 19.62 10.43"/><polygon class="cls-13" points="13.12 8.76 13.8 8.08 13.55 7.15 12.62 6.9 11.94 7.58 12.19 8.51 13.12 8.76"/><polygon class="cls-14" points="7.72 2.35 8.31 1.76 8.09 0.95 7.28 0.73 6.69 1.32 6.91 2.13 7.72 2.35"/><polygon class="cls-15" points="4.03 6.01 5.74 4.29 5.11 1.95 2.77 1.33 1.06 3.04 1.69 5.38 4.03 6.01"/></g><g class="cls-7"><polygon class="cls-16" points="14.89 3.04 16.43 1.5 15.87 -0.61 13.76 -1.17 12.22 0.37 12.78 2.48 14.89 3.04"/><polygon class="cls-17" points="20.18 4.12 21.61 2.68 21.09 0.71 19.12 0.19 17.68 1.62 18.21 3.59 20.18 4.12"/><polygon class="cls-18" points="16.38 7.16 17.13 6.42 16.85 5.4 15.84 5.12 15.09 5.87 15.36 6.89 16.38 7.16"/><polygon class="cls-19" points="11.25 5.84 11.79 5.3 11.59 4.57 10.86 4.37 10.32 4.91 10.52 5.64 11.25 5.84"/><polygon class="cls-20" points="10.04 0.68 10.38 0.33 10.26 -0.14 9.78 -0.27 9.44 0.08 9.56 0.55 10.04 0.68"/></g></g><g class="cls-7"><g class="cls-9"><g class="cls-21"><g class="cls-10"><polygon class="cls-8" points="7.61 3.82 7.61 3.83 7.61 3.82 7.61 3.82 7.61 3.82"/><polygon class="cls-8" points="7.61 4.25 7.61 4.25 7.61 4.25 7.61 4.25 7.61 4.25"/><polygon class="cls-8" points="7.61 4.67 7.61 4.67 7.61 4.67 7.61 4.67 7.61 4.67"/><polygon class="cls-8" points="7.61 5.1 7.61 5.1 7.61 5.1 7.61 5.1 7.61 5.1"/><polygon class="cls-8" points="7.61 5.52 7.61 5.52 7.61 5.52 7.61 5.52 7.61 5.52"/><polygon class="cls-8" points="7.61 5.95 7.61 5.95 7.61 5.95 7.61 5.95 7.61 5.95"/><polygon class="cls-8" points="7.61 6.37 7.61 6.37 7.61 6.37 7.61 6.37 7.61 6.37"/><polygon class="cls-8" points="7.61 7.22 7.61 7.22 7.61 7.22 7.61 7.22 7.61 7.22"/><polygon class="cls-8" points="7.61 7.65 7.61 7.65 7.61 7.65 7.61 7.65 7.61 7.65"/><polygon class="cls-8" points="8.04 2.34 8.04 2.34 8.03 2.34 8.03 2.33 8.04 2.34"/><polygon class="cls-8" points="8.04 2.76 8.04 2.76 8.03 2.76 8.03 2.76 8.04 2.76"/><polygon class="cls-8" points="8.04 3.19 8.04 3.19 8.03 3.19 8.03 3.19 8.04 3.19"/><polygon class="cls-8" points="8.04 3.61 8.04 3.61 8.03 3.61 8.03 3.61 8.04 3.61"/><polygon class="cls-8" points="8.04 4.04 8.04 4.04 8.03 4.04 8.03 4.04 8.04 4.04"/><polygon class="cls-8" points="8.04 4.46 8.04 4.46 8.03 4.46 8.03 4.46 8.04 4.46"/><polygon class="cls-8" points="8.04 4.89 8.04 4.89 8.03 4.89 8.03 4.88 8.04 4.89"/><polygon class="cls-8" points="8.04 5.31 8.04 5.31 8.03 5.31 8.03 5.31 8.04 5.31"/><polygon class="cls-8" points="8.04 5.74 8.04 5.74 8.03 5.74 8.03 5.73 8.04 5.74"/><polygon class="cls-8" points="8.04 6.16 8.04 6.16 8.03 6.16 8.03 6.16 8.04 6.16"/><polygon class="cls-8" points="8.04 6.58 8.04 6.59 8.03 6.58 8.03 6.58 8.04 6.58"/><polygon class="cls-8" points="8.04 7.01 8.04 7.01 8.03 7.01 8.03 7.01 8.04 7.01"/><polygon class="cls-8" points="8.04 7.43 8.04 7.44 8.03 7.43 8.03 7.43 8.04 7.43"/><polygon class="cls-8" points="8.04 7.86 8.04 7.86 8.03 7.86 8.03 7.86 8.04 7.86"/><polygon class="cls-8" points="8.46 1.27 8.46 1.27 8.46 1.27 8.46 1.27 8.46 1.27"/><polygon class="cls-8" points="8.46 1.7 8.46 1.7 8.46 1.7 8.46 1.7 8.46 1.7"/><polygon class="cls-8" points="8.46 2.12 8.46 2.13 8.46 2.12 8.46 2.12 8.46 2.12"/><polygon class="cls-8" points="8.46 2.55 8.46 2.55 8.46 2.55 8.46 2.55 8.46 2.55"/><polygon class="cls-8" points="8.46 2.97 8.46 2.98 8.46 2.97 8.46 2.97 8.46 2.97"/><polygon class="cls-8" points="8.46 3.4 8.46 3.4 8.46 3.4 8.46 3.4 8.46 3.4"/><polygon class="cls-8" points="8.46 3.82 8.46 3.83 8.46 3.82 8.46 3.82 8.46 3.82"/><polygon class="cls-8" points="8.46 4.25 8.46 4.25 8.46 4.25 8.46 4.25 8.46 4.25"/><polygon class="cls-8" points="8.46 4.67 8.46 4.67 8.46 4.67 8.46 4.67 8.46 4.67"/><polygon class="cls-8" points="8.46 5.1 8.46 5.1 8.46 5.1 8.46 5.1 8.46 5.1"/><polygon class="cls-8" points="8.46 5.52 8.46 5.52 8.46 5.52 8.46 5.52 8.46 5.52"/><polygon class="cls-8" points="8.46 5.95 8.46 5.95 8.46 5.95 8.46 5.95 8.46 5.95"/><polygon class="cls-8" points="8.46 6.37 8.46 6.37 8.46 6.37 8.46 6.37 8.46 6.37"/><polygon class="cls-8" points="8.46 6.8 8.46 6.8 8.46 6.8 8.46 6.8 8.46 6.8"/><polygon class="cls-8" points="8.46 7.22 8.46 7.22 8.46 7.22 8.46 7.22 8.46 7.22"/><polygon class="cls-8" points="8.46 7.65 8.46 7.65 8.46 7.65 8.46 7.65 8.46 7.65"/><polygon class="cls-8" points="8.89 0.21 8.88 0.21 8.88 0.21 8.88 0.21 8.89 0.21"/><polygon class="cls-8" points="8.89 0.64 8.88 0.64 8.88 0.64 8.88 0.64 8.89 0.64"/><polygon class="cls-8" points="8.89 1.06 8.89 1.06 8.88 1.06 8.88 1.06 8.89 1.06"/><polygon class="cls-8" points="8.89 1.49 8.89 1.49 8.88 1.49 8.88 1.49 8.89 1.49"/><polygon class="cls-8" points="8.89 1.91 8.88 1.91 8.88 1.91 8.88 1.91 8.89 1.91"/><polygon class="cls-8" points="8.89 2.34 8.88 2.34 8.88 2.34 8.88 2.33 8.89 2.34"/><polygon class="cls-8" points="8.89 2.76 8.88 2.76 8.88 2.76 8.88 2.76 8.89 2.76"/><polygon class="cls-8" points="8.89 3.19 8.88 3.19 8.88 3.19 8.88 3.18 8.89 3.19"/><polygon class="cls-8" points="8.89 3.61 8.88 3.61 8.88 3.61 8.88 3.61 8.89 3.61"/><polygon class="cls-8" points="8.89 4.04 8.89 4.04 8.88 4.04 8.88 4.04 8.89 4.04"/><polygon class="cls-8" points="8.89 4.46 8.89 4.46 8.88 4.46 8.88 4.46 8.89 4.46"/><polygon class="cls-8" points="8.89 4.89 8.89 4.89 8.88 4.89 8.88 4.88 8.89 4.89"/><polygon class="cls-8" points="8.89 5.31 8.89 5.31 8.88 5.31 8.88 5.31 8.89 5.31"/><polygon class="cls-8" points="8.89 5.74 8.89 5.74 8.88 5.74 8.88 5.73 8.89 5.74"/><polygon class="cls-8" points="8.89 6.16 8.89 6.16 8.88 6.16 8.88 6.16 8.89 6.16"/><polygon class="cls-8" points="8.89 6.58 8.89 6.59 8.88 6.59 8.88 6.58 8.89 6.58"/><polygon class="cls-8" points="8.89 7.01 8.89 7.01 8.88 7.01 8.88 7.01 8.89 7.01"/><polygon class="cls-8" points="8.89 7.43 8.89 7.44 8.88 7.44 8.88 7.43 8.89 7.43"/><polygon class="cls-8" points="8.89 7.86 8.89 7.86 8.88 7.86 8.88 7.86 8.89 7.86"/><polygon class="cls-8" points="9.31 0 9.31 0 9.31 0 9.31 0 9.31 0"/><polygon class="cls-8" points="9.31 0.42 9.31 0.43 9.31 0.42 9.31 0.42 9.31 0.42"/><polygon class="cls-8" points="9.31 0.85 9.31 0.85 9.31 0.85 9.31 0.85 9.31 0.85"/><polygon class="cls-8" points="9.31 1.27 9.31 1.28 9.31 1.27 9.31 1.27 9.31 1.27"/><polygon class="cls-8" points="9.31 1.7 9.31 1.7 9.31 1.7 9.31 1.7 9.31 1.7"/><polygon class="cls-8" points="9.31 2.12 9.31 2.13 9.31 2.12 9.31 2.12 9.31 2.12"/><polygon class="cls-8" points="9.31 2.55 9.31 2.55 9.31 2.55 9.31 2.55 9.31 2.55"/><polygon class="cls-8" points="9.31 2.97 9.31 2.98 9.31 2.97 9.31 2.97 9.31 2.97"/><polygon class="cls-8" points="9.31 3.4 9.31 3.4 9.31 3.4 9.31 3.4 9.31 3.4"/><polygon class="cls-8" points="9.31 3.82 9.31 3.83 9.31 3.82 9.31 3.82 9.31 3.82"/><polygon class="cls-8" points="9.31 4.25 9.31 4.25 9.31 4.25 9.31 4.25 9.31 4.25"/><polygon class="cls-8" points="9.31 4.67 9.31 4.68 9.31 4.67 9.31 4.67 9.31 4.67"/><polygon class="cls-8" points="9.31 5.1 9.31 5.1 9.31 5.1 9.31 5.1 9.31 5.1"/><polygon class="cls-8" points="9.31 5.52 9.31 5.53 9.31 5.52 9.31 5.52 9.31 5.52"/><polygon class="cls-8" points="9.31 5.95 9.31 5.95 9.31 5.95 9.31 5.95 9.31 5.95"/><polygon class="cls-8" points="9.31 6.37 9.31 6.37 9.31 6.37 9.31 6.37 9.31 6.37"/><polygon class="cls-8" points="9.31 6.8 9.31 6.8 9.31 6.8 9.31 6.8 9.31 6.8"/><polygon class="cls-8" points="9.31 7.22 9.31 7.22 9.31 7.22 9.31 7.22 9.31 7.22"/><polygon class="cls-8" points="9.31 7.65 9.31 7.65 9.31 7.65 9.31 7.65 9.31 7.65"/><polygon class="cls-8" points="9.74 0.21 9.73 0.21 9.73 0.21 9.73 0.21 9.74 0.21"/><polygon class="cls-8" points="9.74 0.64 9.73 0.64 9.73 0.64 9.73 0.63 9.74 0.64"/><polygon class="cls-8" points="9.74 1.06 9.73 1.06 9.73 1.06 9.73 1.06 9.74 1.06"/><polygon class="cls-8" points="9.74 1.49 9.73 1.49 9.73 1.49 9.73 1.48 9.74 1.49"/><polygon class="cls-8" points="9.74 1.91 9.73 1.91 9.73 1.91 9.73 1.91 9.74 1.91"/><polygon class="cls-8" points="9.74 2.34 9.73 2.34 9.73 2.34 9.73 2.33 9.74 2.34"/><polygon class="cls-8" points="9.74 2.76 9.73 2.76 9.73 2.76 9.73 2.76 9.74 2.76"/><polygon class="cls-8" points="9.74 3.19 9.73 3.19 9.73 3.19 9.73 3.18 9.74 3.19"/><polygon class="cls-8" points="9.74 3.61 9.73 3.61 9.73 3.61 9.73 3.61 9.74 3.61"/><polygon class="cls-8" points="9.74 4.04 9.73 4.04 9.73 4.04 9.73 4.03 9.74 4.04"/><polygon class="cls-8" points="9.74 4.46 9.73 4.46 9.73 4.46 9.73 4.46 9.74 4.46"/><polygon class="cls-8" points="9.74 4.89 9.73 4.89 9.73 4.89 9.73 4.88 9.74 4.89"/><polygon class="cls-8" points="9.74 5.31 9.73 5.31 9.73 5.31 9.73 5.31 9.74 5.31"/><polygon class="cls-8" points="9.74 5.74 9.73 5.74 9.73 5.74 9.73 5.73 9.74 5.74"/><polygon class="cls-8" points="9.74 6.16 9.73 6.16 9.73 6.16 9.73 6.16 9.74 6.16"/><polygon class="cls-8" points="9.74 6.58 9.73 6.59 9.73 6.58 9.73 6.58 9.74 6.58"/><polygon class="cls-8" points="9.74 7.01 9.73 7.01 9.73 7.01 9.73 7.01 9.74 7.01"/><polygon class="cls-8" points="9.74 7.43 9.73 7.44 9.73 7.43 9.73 7.43 9.74 7.43"/><polygon class="cls-8" points="9.74 7.86 9.73 7.86 9.73 7.86 9.73 7.86 9.74 7.86"/><polygon class="cls-8" points="10.16 0 10.16 0 10.16 0 10.16 0 10.16 0"/><polygon class="cls-8" points="10.16 0.42 10.16 0.43 10.16 0.42 10.16 0.42 10.16 0.42"/><polygon class="cls-8" points="10.16 0.85 10.16 0.85 10.16 0.85 10.16 0.85 10.16 0.85"/><polygon class="cls-8" points="10.16 1.27 10.16 1.28 10.16 1.27 10.16 1.27 10.16 1.27"/><polygon class="cls-8" points="10.16 1.7 10.16 1.7 10.16 1.7 10.16 1.7 10.16 1.7"/><polygon class="cls-8" points="10.16 2.12 10.16 2.13 10.16 2.12 10.16 2.12 10.16 2.12"/><polygon class="cls-8" points="10.16 2.55 10.16 2.55 10.16 2.55 10.16 2.55 10.16 2.55"/><polygon class="cls-8" points="10.16 2.97 10.16 2.98 10.16 2.97 10.16 2.97 10.16 2.97"/><polygon class="cls-8" points="10.16 3.4 10.16 3.4 10.16 3.4 10.16 3.4 10.16 3.4"/><polygon class="cls-8" points="10.16 3.82 10.16 3.83 10.16 3.82 10.16 3.82 10.16 3.82"/><polygon class="cls-8" points="10.16 4.25 10.16 4.25 10.16 4.25 10.16 4.25 10.16 4.25"/><polygon class="cls-8" points="10.16 4.67 10.16 4.68 10.16 4.67 10.16 4.67 10.16 4.67"/><polygon class="cls-8" points="10.16 5.1 10.16 5.1 10.16 5.1 10.16 5.1 10.16 5.1"/><polygon class="cls-8" points="10.16 5.52 10.16 5.53 10.16 5.52 10.16 5.52 10.16 5.52"/><polygon class="cls-8" points="10.16 5.95 10.16 5.95 10.16 5.95 10.16 5.95 10.16 5.95"/><polygon class="cls-8" points="10.16 6.37 10.16 6.38 10.16 6.37 10.16 6.37 10.16 6.37"/><polygon class="cls-8" points="10.16 6.8 10.16 6.8 10.16 6.8 10.16 6.79 10.16 6.8"/><polygon class="cls-8" points="10.16 7.22 10.16 7.22 10.16 7.22 10.16 7.22 10.16 7.22"/><polygon class="cls-8" points="10.16 7.65 10.16 7.65 10.16 7.65 10.16 7.64 10.16 7.65"/><polygon class="cls-8" points="10.59 0.21 10.59 0.21 10.58 0.21 10.59 0.21 10.59 0.21"/><polygon class="cls-8" points="10.59 0.64 10.59 0.64 10.58 0.64 10.59 0.63 10.59 0.64"/><polygon class="cls-8" points="10.59 1.06 10.59 1.06 10.58 1.06 10.59 1.06 10.59 1.06"/><polygon class="cls-8" points="10.59 1.49 10.59 1.49 10.58 1.49 10.59 1.48 10.59 1.49"/><polygon class="cls-8" points="10.59 1.91 10.59 1.92 10.58 1.91 10.59 1.91 10.59 1.91"/><polygon class="cls-8" points="10.59 2.34 10.59 2.34 10.58 2.34 10.59 2.33 10.59 2.34"/><polygon class="cls-8" points="10.59 2.76 10.59 2.77 10.58 2.76 10.59 2.76 10.59 2.76"/><polygon class="cls-8" points="10.59 3.19 10.59 3.19 10.58 3.19 10.59 3.18 10.59 3.19"/><polygon class="cls-8" points="10.59 3.61 10.59 3.61 10.58 3.61 10.59 3.61 10.59 3.61"/><polygon class="cls-8" points="10.59 4.04 10.59 4.04 10.58 4.04 10.59 4.03 10.59 4.04"/><polygon class="cls-8" points="10.59 4.46 10.59 4.46 10.58 4.46 10.59 4.46 10.59 4.46"/><polygon class="cls-8" points="10.59 4.89 10.59 4.89 10.58 4.89 10.59 4.88 10.59 4.89"/><polygon class="cls-8" points="10.59 5.31 10.59 5.31 10.58 5.31 10.59 5.31 10.59 5.31"/><polygon class="cls-8" points="10.59 5.74 10.59 5.74 10.58 5.74 10.59 5.73 10.59 5.74"/><circle class="cls-8" cx="10.58" cy="6.16"/><polygon class="cls-8" points="10.59 6.58 10.59 6.59 10.58 6.58 10.59 6.58 10.59 6.58"/><polygon class="cls-8" points="10.59 7.01 10.59 7.01 10.58 7.01 10.59 7.01 10.59 7.01"/><polygon class="cls-8" points="10.59 7.43 10.59 7.44 10.58 7.43 10.59 7.43 10.59 7.43"/><polygon class="cls-8" points="10.59 7.86 10.59 7.86 10.58 7.86 10.59 7.86 10.59 7.86"/><polygon class="cls-8" points="11.01 0 11.01 0 11.01 0 11.01 -0.01 11.01 0"/><polygon class="cls-8" points="11.01 0.42 11.01 0.43 11.01 0.42 11.01 0.42 11.01 0.42"/><polygon class="cls-8" points="11.01 0.85 11.01 0.85 11.01 0.85 11.01 0.84 11.01 0.85"/><polygon class="cls-8" points="11.01 1.27 11.01 1.28 11.01 1.27 11.01 1.27 11.01 1.27"/><polygon class="cls-8" points="11.01 1.7 11.01 1.7 11.01 1.7 11.01 1.7 11.01 1.7"/><polygon class="cls-8" points="11.01 2.12 11.01 2.13 11.01 2.12 11.01 2.12 11.01 2.12"/><polygon class="cls-8" points="11.01 2.55 11.01 2.55 11.01 2.55 11.01 2.54 11.01 2.55"/><polygon class="cls-8" points="11.01 2.97 11.01 2.98 11.01 2.97 11.01 2.97 11.01 2.97"/><polygon class="cls-8" points="11.01 3.4 11.01 3.4 11.01 3.4 11.01 3.4 11.01 3.4"/><polygon class="cls-8" points="11.01 3.82 11.01 3.83 11.01 3.82 11.01 3.82 11.01 3.82"/><polygon class="cls-8" points="11.01 4.25 11.01 4.25 11.01 4.25 11.01 4.25 11.01 4.25"/><polygon class="cls-8" points="11.01 4.67 11.01 4.68 11.01 4.67 11.01 4.67 11.01 4.67"/><polygon class="cls-8" points="11.01 5.1 11.01 5.1 11.01 5.1 11.01 5.09 11.01 5.1"/><polygon class="cls-8" points="11.01 5.52 11.01 5.53 11.01 5.52 11.01 5.52 11.01 5.52"/><polygon class="cls-8" points="11.01 5.95 11.01 5.95 11.01 5.95 11.01 5.94 11.01 5.95"/><polygon class="cls-8" points="11.01 6.37 11.01 6.38 11.01 6.37 11.01 6.37 11.01 6.37"/><polygon class="cls-8" points="11.01 6.8 11.01 6.8 11.01 6.8 11.01 6.79 11.01 6.8"/><polygon class="cls-8" points="11.01 7.22 11.01 7.23 11.01 7.22 11.01 7.22 11.01 7.22"/><polygon class="cls-8" points="11.01 7.65 11.01 7.65 11.01 7.65 11.01 7.64 11.01 7.65"/><polygon class="cls-8" points="11.44 0.21 11.44 0.22 11.43 0.21 11.44 0.21 11.44 0.21"/><polygon class="cls-8" points="11.44 0.64 11.44 0.64 11.43 0.64 11.44 0.63 11.44 0.64"/><polygon class="cls-8" points="11.44 1.06 11.44 1.07 11.43 1.06 11.44 1.06 11.44 1.06"/><polygon class="cls-8" points="11.44 1.49 11.44 1.49 11.43 1.49 11.44 1.48 11.44 1.49"/><polygon class="cls-8" points="11.44 1.91 11.44 1.92 11.43 1.91 11.44 1.91 11.44 1.91"/><polygon class="cls-8" points="11.44 2.34 11.44 2.34 11.43 2.34 11.44 2.33 11.44 2.34"/><polygon class="cls-8" points="11.44 2.76 11.44 2.77 11.43 2.76 11.44 2.76 11.44 2.76"/><polygon class="cls-8" points="11.44 3.19 11.44 3.19 11.43 3.19 11.44 3.18 11.44 3.19"/><polygon class="cls-8" points="11.44 3.61 11.44 3.62 11.43 3.61 11.44 3.6 11.44 3.61"/><polygon class="cls-8" points="11.44 4.04 11.44 4.04 11.43 4.04 11.44 4.03 11.44 4.04"/><polygon class="cls-8" points="11.44 4.46 11.44 4.46 11.43 4.46 11.44 4.46 11.44 4.46"/><polygon class="cls-8" points="11.44 4.89 11.44 4.89 11.43 4.89 11.44 4.88 11.44 4.89"/><polygon class="cls-8" points="11.44 5.31 11.44 5.32 11.43 5.31 11.44 5.31 11.44 5.31"/><polygon class="cls-8" points="11.44 5.74 11.44 5.74 11.43 5.74 11.44 5.73 11.44 5.74"/><polygon class="cls-8" points="11.44 6.16 11.44 6.17 11.43 6.16 11.44 6.16 11.44 6.16"/><polygon class="cls-8" points="11.44 6.58 11.44 6.59 11.43 6.58 11.44 6.58 11.44 6.58"/><polygon class="cls-8" points="11.44 7.01 11.44 7.01 11.43 7.01 11.44 7.01 11.44 7.01"/><polygon class="cls-8" points="11.44 7.43 11.44 7.44 11.43 7.43 11.44 7.43 11.44 7.43"/><polygon class="cls-8" points="11.44 7.86 11.44 7.87 11.43 7.86 11.44 7.86 11.44 7.86"/><polygon class="cls-8" points="11.87 0 11.86 0.01 11.85 0 11.86 -0.01 11.87 0"/><polygon class="cls-8" points="11.87 0.42 11.86 0.43 11.85 0.42 11.86 0.42 11.87 0.42"/><polygon class="cls-8" points="11.87 0.85 11.86 0.85 11.85 0.85 11.86 0.84 11.87 0.85"/><polygon class="cls-8" points="11.87 1.27 11.86 1.28 11.85 1.27 11.86 1.27 11.87 1.27"/><polygon class="cls-8" points="11.87 1.7 11.86 1.71 11.85 1.7 11.86 1.69 11.87 1.7"/><polygon class="cls-8" points="11.87 2.12 11.86 2.13 11.85 2.12 11.86 2.12 11.87 2.12"/><polygon class="cls-8" points="11.87 2.55 11.86 2.55 11.85 2.55 11.86 2.54 11.87 2.55"/><polygon class="cls-8" points="11.87 2.97 11.86 2.98 11.85 2.97 11.86 2.97 11.87 2.97"/><polygon class="cls-8" points="11.87 3.4 11.86 3.4 11.85 3.4 11.86 3.39 11.87 3.4"/><polygon class="cls-8" points="11.87 3.82 11.86 3.83 11.85 3.82 11.86 3.82 11.87 3.82"/><polygon class="cls-8" points="11.87 4.25 11.86 4.25 11.85 4.25 11.86 4.24 11.87 4.25"/><polygon class="cls-8" points="11.87 4.67 11.86 4.68 11.85 4.67 11.86 4.67 11.87 4.67"/><polygon class="cls-8" points="11.87 5.1 11.86 5.1 11.85 5.1 11.86 5.09 11.87 5.1"/><polygon class="cls-8" points="11.87 5.52 11.86 5.53 11.85 5.52 11.86 5.52 11.87 5.52"/><polygon class="cls-8" points="11.86 5.95 11.86 5.95 11.86 5.95 11.86 5.94 11.86 5.95"/><polygon class="cls-8" points="11.86 6.37 11.86 6.38 11.86 6.37 11.86 6.37 11.86 6.37"/><polygon class="cls-8" points="11.86 6.8 11.86 6.8 11.86 6.8 11.86 6.79 11.86 6.8"/><circle class="cls-8" cx="11.86" cy="7.22"/><polygon class="cls-8" points="11.86 7.65 11.86 7.65 11.86 7.65 11.86 7.64 11.86 7.65"/><polygon class="cls-8" points="12.29 0.21 12.28 0.22 12.28 0.21 12.28 0.21 12.29 0.21"/><path class="cls-8" d="M12.29.64h0Z"/><circle class="cls-8" cx="12.28" cy="1.06" r="0.01"/><circle class="cls-8" cx="12.28" cy="1.49" r="0.01"/><path class="cls-8" d="M12.29,1.91h0A0,0,0,0,1,12.29,1.91Z"/><path class="cls-8" d="M12.29,2.34h0Z"/><polygon class="cls-8" points="12.29 2.76 12.28 2.77 12.28 2.76 12.28 2.75 12.29 2.76"/><polygon class="cls-8" points="12.29 3.19 12.28 3.19 12.28 3.19 12.28 3.18 12.29 3.19"/><polygon class="cls-8" points="12.29 3.61 12.28 3.62 12.28 3.61 12.28 3.6 12.29 3.61"/><polygon class="cls-8" points="12.29 4.04 12.28 4.04 12.28 4.04 12.28 4.03 12.29 4.04"/><circle class="cls-8" cx="12.28" cy="4.46" r="0.01"/><circle class="cls-8" cx="12.28" cy="4.89" r="0.01"/><polygon class="cls-8" points="12.29 5.31 12.28 5.32 12.28 5.31 12.28 5.3 12.29 5.31"/><polygon class="cls-8" points="12.29 5.74 12.28 5.74 12.28 5.74 12.28 5.73 12.29 5.74"/><circle class="cls-8" cx="12.28" cy="6.16" r="0.01"/><circle class="cls-8" cx="12.28" cy="6.59" r="0.01"/><polygon class="cls-8" points="12.29 7.01 12.28 7.02 12.28 7.01 12.28 7 12.29 7.01"/><polygon class="cls-8" points="12.29 7.43 12.28 7.44 12.28 7.43 12.28 7.43 12.29 7.43"/><circle class="cls-8" cx="12.28" cy="7.86" r="0.01"/><path class="cls-8" d="M12.72,0h0Z"/><path class="cls-8" d="M12.72.42a0,0,0,0,1,0,0s0,0,0,0h0Z"/><path class="cls-8" d="M12.72.85h0a0,0,0,0,1,0,0s0,0,0,0A0,0,0,0,1,12.72.85Z"/><path class="cls-8" d="M12.72,1.27a0,0,0,0,1,0,0s0,0,0,0h0Z"/><path class="cls-8" d="M12.72,1.7h0a0,0,0,0,1,0,0s0,0,0,0A0,0,0,0,1,12.72,1.7Z"/><path class="cls-8" d="M12.72,2.12h0Z"/><polygon class="cls-8" points="12.72 2.55 12.71 2.56 12.7 2.55 12.71 2.54 12.72 2.55"/><polygon class="cls-8" points="12.72 2.97 12.71 2.98 12.7 2.97 12.71 2.97 12.72 2.97"/><path class="cls-8" d="M12.72,3.4h0Z"/><polygon class="cls-8" points="12.72 3.82 12.71 3.83 12.7 3.82 12.71 3.82 12.72 3.82"/><polygon class="cls-8" points="12.72 4.25 12.71 4.25 12.7 4.25 12.71 4.24 12.72 4.25"/><polygon class="cls-8" points="12.72 4.67 12.71 4.68 12.7 4.67 12.71 4.67 12.72 4.67"/><polygon class="cls-8" points="12.72 5.1 12.71 5.11 12.7 5.1 12.71 5.09 12.72 5.1"/><polygon class="cls-8" points="12.72 5.52 12.71 5.53 12.7 5.52 12.71 5.52 12.72 5.52"/><polygon class="cls-8" points="12.71 5.95 12.71 5.95 12.7 5.95 12.71 5.94 12.71 5.95"/><polygon class="cls-8" points="12.71 6.37 12.71 6.38 12.7 6.37 12.71 6.37 12.71 6.37"/><polygon class="cls-8" points="12.71 6.8 12.71 6.8 12.7 6.8 12.71 6.79 12.71 6.8"/><circle class="cls-8" cx="12.71" cy="7.22" r="0.01"/><polygon class="cls-8" points="12.72 7.65 12.71 7.66 12.7 7.65 12.71 7.64 12.72 7.65"/><path class="cls-8" d="M13.14.21s0,0,0,0a0,0,0,0,1,0,0h0Z"/><path class="cls-8" d="M13.14.64a0,0,0,0,1,0,0h0a0,0,0,0,1,0,0S13.14.63,13.14.64Z"/><path class="cls-8" d="M13.14,1.06s0,0,0,0a0,0,0,0,1,0,0h0A0,0,0,0,1,13.14,1.06Z"/><path class="cls-8" d="M13.14,1.49h0S13.14,1.48,13.14,1.49Z"/><path class="cls-8" d="M13.14,1.91s0,0,0,0a0,0,0,0,1,0,0h0A0,0,0,0,1,13.14,1.91Z"/><path class="cls-8" d="M13.14,2.34a0,0,0,0,1,0,0h0Z"/><path class="cls-8" d="M13.14,2.76s0,0,0,0a0,0,0,0,1,0,0h0Z"/><path class="cls-8" d="M13.14,3.19a0,0,0,0,1,0,0h0Z"/><path class="cls-8" d="M13.14,3.61s0,0,0,0h0Z"/><path class="cls-8" d="M13.14,4h0Z"/><path class="cls-8" d="M13.14,4.46h0Z"/><path class="cls-8" d="M13.14,4.89h0Z"/><path class="cls-8" d="M13.14,5.31s0,0,0,0h0Z"/><path class="cls-8" d="M13.14,5.74h0Z"/><path class="cls-8" d="M13.14,6.16h0Z"/><path class="cls-8" d="M13.14,6.59h0Z"/><path class="cls-8" d="M13.14,7h0Z"/><path class="cls-8" d="M13.14,7.44h0S13.14,7.43,13.14,7.44Z"/><path class="cls-8" d="M13.14,7.86h0A0,0,0,0,1,13.14,7.86Z"/><path class="cls-8" d="M13.57,0h0Z"/><path class="cls-8" d="M13.57.42a0,0,0,0,1,0,0s0,0,0,0a0,0,0,0,1,0,0Z"/><path class="cls-8" d="M13.57.85h0a0,0,0,0,1,0,0s0,0,0,0A0,0,0,0,1,13.57.85Z"/><path class="cls-8" d="M13.57,1.27a0,0,0,0,1,0,0s0,0,0,0a0,0,0,0,1,0,0Z"/><path class="cls-8" d="M13.57,1.7h0a0,0,0,0,1,0,0s0,0,0,0A0,0,0,0,1,13.57,1.7Z"/><path class="cls-8" d="M13.57,2.12h0a0,0,0,0,1,0,0Z"/><path class="cls-8" d="M13.57,2.55h0a0,0,0,0,1,0,0h0Z"/><path class="cls-8" d="M13.57,3h0a0,0,0,0,1,0,0Z"/><path class="cls-8" d="M13.57,3.4h0a0,0,0,0,1,0,0h0Z"/><path class="cls-8" d="M13.57,3.82a0,0,0,0,1,0,0s0,0,0,0h0Z"/><path class="cls-8" d="M13.57,4.25h0Z"/><path class="cls-8" d="M13.57,4.67h0Z"/><path class="cls-8" d="M13.57,5.1h0a0,0,0,0,1,0,0h0Z"/><path class="cls-8" d="M13.57,5.52a0,0,0,0,1,0,0s0,0,0,0h0Z"/><path class="cls-8" d="M13.57,6h0Z"/><path class="cls-8" d="M13.57,6.37h0Z"/><path class="cls-8" d="M13.57,6.8h0Z"/><path class="cls-8" d="M13.57,7.22a0,0,0,0,1,0,0s0,0,0,0h0Z"/><path class="cls-8" d="M13.57,7.65h0s0,0,0,0A0,0,0,0,1,13.57,7.65Z"/><path class="cls-8" d="M14,.21s0,0,0,0a0,0,0,0,1,0,0h0Z"/><path class="cls-8" d="M14,.64h0a0,0,0,0,1,0,0A0,0,0,0,1,14,.64Z"/><circle class="cls-8" cx="13.98" cy="1.06" r="0.01"/><circle class="cls-8" cx="13.98" cy="1.49" r="0.01"/><path class="cls-8" d="M14,1.91s0,0,0,0a0,0,0,0,1,0,0h0A0,0,0,0,1,14,1.91Z"/><circle class="cls-8" cx="13.98" cy="2.34" r="0.01"/><circle class="cls-8" cx="13.98" cy="2.76" r="0.01"/><circle class="cls-8" cx="13.98" cy="3.19" r="0.01"/><path class="cls-8" d="M14,3.61s0,0,0,0a0,0,0,0,1,0,0h0Z"/><path class="cls-8" d="M14,4h0Z"/><circle class="cls-8" cx="13.98" cy="4.46" r="0.01"/><circle class="cls-8" cx="13.98" cy="4.89" r="0.01"/><path class="cls-8" d="M14,5.31s0,0,0,0a0,0,0,0,1,0,0h0Z"/><path class="cls-8" d="M14,5.74h0v0S14,5.73,14,5.74Z"/><circle class="cls-8" cx="13.98" cy="6.16" r="0.01"/><circle class="cls-8" cx="13.98" cy="6.59" r="0.01"/><path class="cls-8" d="M14,7h0Z"/><circle class="cls-8" cx="13.98" cy="7.44" r="0.01"/><circle class="cls-8" cx="13.98" cy="7.86" r="0.01"/><path class="cls-8" d="M14.42,0h0l0,0S14.42,0,14.42,0Z"/><path class="cls-8" d="M14.42.42s0,0,0,0a0,0,0,0,1,0,0h0A0,0,0,0,1,14.42.42Z"/><path class="cls-8" d="M14.42.85s0,0,0,0,0,0,0,0,0,0,0,0S14.42.84,14.42.85Z"/><path class="cls-8" d="M14.42,1.27s0,0,0,0,0,0,0,0a0,0,0,0,1,0,0A0,0,0,0,1,14.4,1.27Z"/><path class="cls-8" d="M14.42,1.7s0,0,0,0,0,0,0,0,0,0,0,0S14.42,1.69,14.42,1.7Z"/><path class="cls-8" d="M14.42,2.12s0,0,0,0,0,0,0,0a0,0,0,0,1,0,0A0,0,0,0,1,14.4,2.12Z"/><path class="cls-8" d="M14.42,2.55s0,0,0,0,0,0,0,0h0Z"/><path class="cls-8" d="M14.42,3s0,0,0,0,0,0,0,0a0,0,0,0,1,0,0A0,0,0,0,1,14.4,3Z"/><path class="cls-8" d="M14.42,3.4a0,0,0,0,1,0,0,0,0,0,0,1,0,0h0Z"/><circle class="cls-8" cx="14.41" cy="3.82" r="0.01"/><path class="cls-8" d="M14.42,4.25h0Z"/><path class="cls-8" d="M14.42,4.67s0,0,0,0,0,0,0,0h0Z"/><circle class="cls-8" cx="14.41" cy="5.1" r="0.01"/><circle class="cls-8" cx="14.41" cy="5.52" r="0.01"/><path class="cls-8" d="M14.42,6h0Z"/><path class="cls-8" d="M14.42,6.37h0Z"/><path class="cls-8" d="M14.42,6.8h0Z"/><circle class="cls-8" cx="14.41" cy="7.22" r="0.01"/><circle class="cls-8" cx="14.41" cy="7.65" r="0.01"/><path class="cls-8" d="M14.85.21a0,0,0,0,1,0,0,0,0,0,0,1,0,0h0Z"/><path class="cls-8" d="M14.85.64h0a0,0,0,0,1,0,0A0,0,0,0,1,14.85.64Z"/><path class="cls-8" d="M14.85,1.06a0,0,0,0,1,0,0,0,0,0,0,1,0,0,0,0,0,0,1,0,0S14.85,1.05,14.85,1.06Z"/><path class="cls-8" d="M14.85,1.49h0a0,0,0,0,1,0,0A0,0,0,0,1,14.85,1.49Z"/><path class="cls-8" d="M14.85,1.91a0,0,0,0,1,0,0,0,0,0,0,1,0,0,0,0,0,0,1,0,0S14.85,1.9,14.85,1.91Z"/><path class="cls-8" d="M14.85,2.34h0v0A0,0,0,0,1,14.85,2.34Z"/><path class="cls-8" d="M14.85,2.76a0,0,0,0,1,0,0,0,0,0,0,1,0,0h0Z"/><path class="cls-8" d="M14.85,3.19h0v0Z"/><path class="cls-8" d="M14.85,3.61a0,0,0,0,1,0,0,0,0,0,0,1,0,0h0Z"/><path class="cls-8" d="M14.85,4h0V4Z"/><path class="cls-8" d="M14.85,4.46h0Z"/><path class="cls-8" d="M14.85,4.89h0v0Z"/><path class="cls-8" d="M14.85,5.31s0,0,0,0a0,0,0,0,1,0,0h0Z"/><path class="cls-8" d="M14.85,5.74h0v0A0,0,0,0,1,14.85,5.74Z"/><path class="cls-8" d="M14.85,6.16h0Z"/><path class="cls-8" d="M14.85,6.59h0v0Z"/><path class="cls-8" d="M14.85,7h0Z"/><path class="cls-8" d="M14.85,7.44h0a0,0,0,0,1,0,0A0,0,0,0,1,14.85,7.44Z"/><path class="cls-8" d="M14.85,7.86h0a0,0,0,0,1,0,0S14.85,7.85,14.85,7.86Z"/><path class="cls-8" d="M15.28,0l0,0,0,0,0,0Z"/><circle class="cls-8" cx="15.26" cy="0.42" r="0.02"/><path class="cls-8" d="M15.28.85a0,0,0,0,1,0,0,0,0,0,0,1,0,0,0,0,0,0,1,0,0A0,0,0,0,1,15.24.85Z"/><path class="cls-8" d="M15.27,1.27s0,0,0,0a0,0,0,0,1,0,0h0A0,0,0,0,1,15.27,1.27Z"/><path class="cls-8" d="M15.27,1.7s0,0,0,0,0,0,0,0a0,0,0,0,1,0,0S15.27,1.69,15.27,1.7Z"/><path class="cls-8" d="M15.27,2.12s0,0,0,0a0,0,0,0,1,0,0h0A0,0,0,0,1,15.27,2.12Z"/><path class="cls-8" d="M15.27,2.55s0,0,0,0,0,0,0,0a0,0,0,0,1,0,0S15.27,2.54,15.27,2.55Z"/><path class="cls-8" d="M15.27,3s0,0,0,0l0,0h0A0,0,0,0,1,15.27,3Z"/><path class="cls-8" d="M15.27,3.4s0,0,0,0,0,0,0,0l0,0S15.27,3.39,15.27,3.4Z"/><path class="cls-8" d="M15.27,3.82s0,0,0,0a0,0,0,0,1,0,0h0Z"/><path class="cls-8" d="M15.27,4.25h0l0,0S15.27,4.24,15.27,4.25Z"/><path class="cls-8" d="M15.27,4.67s0,0,0,0a0,0,0,0,1,0,0h0Z"/><path class="cls-8" d="M15.27,5.1s0,0,0,0,0,0,0,0l0,0S15.27,5.09,15.27,5.1Z"/><path class="cls-8" d="M15.27,5.52s0,0,0,0a0,0,0,0,1,0,0h0Z"/><path class="cls-8" d="M15.27,6h0l0,0S15.27,5.94,15.27,6Z"/><path class="cls-8" d="M15.27,6.37s0,0,0,0l0,0h0Z"/><path class="cls-8" d="M15.27,6.8h0l0,0S15.27,6.79,15.27,6.8Z"/><path class="cls-8" d="M15.27,7.22s0,0,0,0a0,0,0,0,1,0,0h0Z"/><path class="cls-8" d="M15.27,7.65h0a0,0,0,0,1,0,0S15.27,7.64,15.27,7.65Z"/><path class="cls-8" d="M15.7.21a0,0,0,0,1,0,0,0,0,0,0,1,0,0,0,0,0,0,1,0,0A0,0,0,0,1,15.66.21Z"/><path class="cls-8" d="M15.7.64a0,0,0,0,1,0,0,0,0,0,0,1,0,0,0,0,0,0,1,0,0A0,0,0,0,1,15.66.64Z"/><path class="cls-8" d="M15.7,1.06a0,0,0,0,1,0,0s0,0,0,0,0,0,0,0A0,0,0,0,1,15.7,1.06Z"/><path class="cls-8" d="M15.7,1.49s0,0,0,0,0,0,0,0,0,0,0,0A0,0,0,0,1,15.7,1.49Z"/><path class="cls-8" d="M15.7,1.91a0,0,0,0,1,0,0s0,0,0,0,0,0,0,0A0,0,0,0,1,15.7,1.91Z"/><circle class="cls-8" cx="15.68" cy="2.34" r="0.02"/><circle class="cls-8" cx="15.68" cy="2.76" r="0.02"/><circle class="cls-8" cx="15.68" cy="3.19" r="0.02"/><path class="cls-8" d="M15.7,3.61a0,0,0,0,1,0,0s0,0,0,0,0,0,0,0Z"/><path class="cls-8" d="M15.7,4h0s0,0,0,0Z"/><circle class="cls-8" cx="15.68" cy="4.46" r="0.02"/><circle class="cls-8" cx="15.68" cy="4.89" r="0.02"/><path class="cls-8" d="M15.7,5.31a0,0,0,0,1,0,0s0,0,0,0,0,0,0,0Z"/><path class="cls-8" d="M15.7,5.74h0s0,0,0,0A0,0,0,0,1,15.7,5.74Z"/><circle class="cls-8" cx="15.68" cy="6.16" r="0.02"/><circle class="cls-8" cx="15.68" cy="6.59" r="0.02"/><path class="cls-8" d="M15.7,7a0,0,0,0,1,0,0V7Z"/><path class="cls-8" d="M15.7,7.44h0s0,0,0,0A0,0,0,0,1,15.7,7.44Z"/><circle class="cls-8" cx="15.68" cy="7.86" r="0.02"/><path class="cls-8" d="M16.13,0a0,0,0,0,1,0,0l0,0,0,0A0,0,0,0,1,16.13,0Z"/><path class="cls-8" d="M16.13.42a0,0,0,0,1,0,0,0,0,0,0,1,0,0,0,0,0,0,1,0,0A0,0,0,0,1,16.09.42Z"/><path class="cls-8" d="M16.13.85a0,0,0,0,1,0,0,0,0,0,0,1,0,0,0,0,0,0,1,0,0A0,0,0,0,1,16.09.85Z"/><path class="cls-8" d="M16.13,1.27a0,0,0,0,1,0,0,0,0,0,0,1,0,0,0,0,0,0,1,0,0A0,0,0,0,1,16.09,1.27Z"/><path class="cls-8" d="M16.13,1.7a0,0,0,0,1,0,0,0,0,0,0,1,0,0,0,0,0,0,1,0,0A0,0,0,0,1,16.09,1.7Z"/><path class="cls-8" d="M16.13,2.12a0,0,0,0,1,0,0l0,0a0,0,0,0,1,0,0A0,0,0,0,1,16.09,2.12Z"/><path class="cls-8" d="M16.13,2.55a0,0,0,0,1,0,0,0,0,0,0,1,0,0l0,0A0,0,0,0,1,16.13,2.55Z"/><path class="cls-8" d="M16.13,3a0,0,0,0,1,0,0l0,0a0,0,0,0,1,0,0A0,0,0,0,1,16.09,3Z"/><path class="cls-8" d="M16.13,3.4a0,0,0,0,1,0,0,0,0,0,0,1,0,0l0,0A0,0,0,0,1,16.13,3.4Z"/><path class="cls-8" d="M16.13,3.82a0,0,0,0,1,0,0,0,0,0,0,1,0,0l0,0A0,0,0,0,1,16.13,3.82Z"/><path class="cls-8" d="M16.13,4.25a0,0,0,0,1,0,0l0,0,0,0A0,0,0,0,1,16.13,4.25Z"/><path class="cls-8" d="M16.13,4.67a0,0,0,0,1,0,0l0,0,0,0A0,0,0,0,1,16.13,4.67Z"/><path class="cls-8" d="M16.13,5.1a0,0,0,0,1,0,0,0,0,0,0,1,0,0l0,0A0,0,0,0,1,16.13,5.1Z"/><path class="cls-8" d="M16.13,5.52a0,0,0,0,1,0,0,0,0,0,0,1,0,0l0,0A0,0,0,0,1,16.13,5.52Z"/><path class="cls-8" d="M16.13,6a0,0,0,0,1,0,0l0,0,0,0A0,0,0,0,1,16.13,6Z"/><path class="cls-8" d="M16.13,6.37a0,0,0,0,1,0,0l0,0h0Z"/><path class="cls-8" d="M16.13,6.8a0,0,0,0,1,0,0l0,0,0,0A0,0,0,0,1,16.13,6.8Z"/><path class="cls-8" d="M16.13,7.22a0,0,0,0,1,0,0,0,0,0,0,1,0,0l0,0A0,0,0,0,1,16.13,7.22Z"/><path class="cls-8" d="M16.13,7.65a0,0,0,0,1,0,0l0,0a0,0,0,0,1,0,0A0,0,0,0,1,16.09,7.65Z"/><circle class="cls-8" cx="16.53" cy="0.21" r="0.02"/><circle class="cls-8" cx="16.53" cy="0.64" r="0.02"/><circle class="cls-8" cx="16.53" cy="1.06" r="0.02"/><path class="cls-8" d="M16.55,1.49a0,0,0,0,1,0,0,0,0,0,0,1,0,0,0,0,0,0,1,0,0A0,0,0,0,1,16.51,1.49Z"/><path class="cls-8" d="M16.55,1.91a0,0,0,0,1,0,0,0,0,0,0,1,0,0,0,0,0,0,1,0,0A0,0,0,0,1,16.51,1.91Z"/><path class="cls-8" d="M16.55,2.34a0,0,0,0,1,0,0,0,0,0,0,1,0,0,0,0,0,0,1,0,0Z"/><path class="cls-8" d="M16.55,2.76a0,0,0,0,1,0,0,0,0,0,0,1,0,0,0,0,0,0,1,0,0Z"/><path class="cls-8" d="M16.55,3.19a0,0,0,0,1,0,0,0,0,0,0,1,0,0s0,0,0,0S16.55,3.17,16.55,3.19Z"/><path class="cls-8" d="M16.55,3.61a0,0,0,0,1,0,0,0,0,0,0,1,0,0,0,0,0,0,1,0,0Z"/><path class="cls-8" d="M16.55,4l0,0a0,0,0,0,1,0,0s0,0,0,0S16.55,4,16.55,4Z"/><path class="cls-8" d="M16.55,4.46l0,0a0,0,0,0,1,0,0,0,0,0,0,1,0,0Z"/><path class="cls-8" d="M16.55,4.89a0,0,0,0,1,0,0,0,0,0,0,1,0,0s0,0,0,0S16.55,4.87,16.55,4.89Z"/><path class="cls-8" d="M16.55,5.31a0,0,0,0,1,0,0,0,0,0,0,1,0,0,0,0,0,0,1,0,0Z"/><path class="cls-8" d="M16.55,5.74l0,0a0,0,0,0,1,0,0s0,0,0,0S16.55,5.72,16.55,5.74Z"/><path class="cls-8" d="M16.55,6.16l0,0a0,0,0,0,1,0,0,0,0,0,0,1,0,0Z"/><path class="cls-8" d="M16.55,6.59h0s0,0,0,0S16.55,6.57,16.55,6.59Z"/><path class="cls-8" d="M16.55,7l0,0a0,0,0,0,1,0,0,0,0,0,0,1,0,0Z"/><path class="cls-8" d="M16.55,7.44l0,0a0,0,0,0,1,0,0s0,0,0,0S16.55,7.42,16.55,7.44Z"/><path class="cls-8" d="M16.55,7.86l0,0a0,0,0,0,1,0,0,0,0,0,0,1,0,0A0,0,0,0,1,16.55,7.86Z"/><path class="cls-8" d="M17,0l0,0,0,0,0,0Z"/><path class="cls-8" d="M17,.42s0,0,0,0a0,0,0,0,1,0,0s0,0,0,0A0,0,0,0,1,17,.42Z"/><path class="cls-8" d="M17,.85a0,0,0,0,1,0,0s0,0,0,0,0,0,0,0A0,0,0,0,1,17,.85Z"/><path class="cls-8" d="M17,1.27s0,0,0,0a0,0,0,0,1,0,0s0,0,0,0A0,0,0,0,1,17,1.27Z"/><path class="cls-8" d="M17,1.7a0,0,0,0,1,0,0s0,0,0,0,0,0,0,0A0,0,0,0,1,17,1.7Z"/><path class="cls-8" d="M17,2.12s0,0,0,0,0,0,0,0a0,0,0,0,1,0,0A0,0,0,0,1,16.94,2.12Z"/><path class="cls-8" d="M17,2.55a0,0,0,0,1,0,0,0,0,0,0,1,0,0,0,0,0,0,1,0,0Z"/><path class="cls-8" d="M17,3s0,0,0,0,0,0,0,0a0,0,0,0,1,0,0A0,0,0,0,1,16.94,3Z"/><path class="cls-8" d="M17,3.4a0,0,0,0,1,0,0,0,0,0,0,1,0,0,0,0,0,0,1,0,0Z"/><path class="cls-8" d="M17,3.82s0,0,0,0,0,0,0,0a0,0,0,0,1,0,0Z"/><path class="cls-8" d="M17,4.25l0,0a0,0,0,0,1,0,0,0,0,0,0,1,0,0Z"/><path class="cls-8" d="M17,4.67l0,0a0,0,0,0,1,0,0,0,0,0,0,1,0,0Z"/><path class="cls-8" d="M17,5.1a0,0,0,0,1,0,0,0,0,0,0,1,0,0,0,0,0,0,1,0,0Z"/><path class="cls-8" d="M17,5.52a0,0,0,0,1,0,0,0,0,0,0,1,0,0,0,0,0,0,1,0,0Z"/><path class="cls-8" d="M17,6l0,0a0,0,0,0,1,0,0,0,0,0,0,1,0,0Z"/><path class="cls-8" d="M17,6.37l0,0a0,0,0,0,1,0,0,0,0,0,0,1,0,0Z"/><path class="cls-8" d="M17,6.8l0,0a0,0,0,0,1,0,0,0,0,0,0,1,0,0Z"/><path class="cls-8" d="M17,7.22a0,0,0,0,1,0,0,0,0,0,0,1,0,0,0,0,0,0,1,0,0Z"/><path class="cls-8" d="M17,7.65l0,0a0,0,0,0,1,0,0,0,0,0,0,1,0,0A0,0,0,0,1,17,7.65Z"/><path class="cls-8" d="M17.41.21a0,0,0,0,1,0,0s0,0,0,0l0,0S17.41.2,17.41.21Z"/><path class="cls-8" d="M17.41.64s0,0,0,0a0,0,0,0,1,0,0s0,0,0,0A0,0,0,0,1,17.41.64Z"/><path class="cls-8" d="M17.41,1.06a0,0,0,0,1,0,0s0,0,0,0a0,0,0,0,1,0,0S17.41,1.05,17.41,1.06Z"/><path class="cls-8" d="M17.41,1.49s0,0,0,0a0,0,0,0,1,0,0s0,0,0,0A0,0,0,0,1,17.41,1.49Z"/><path class="cls-8" d="M17.41,1.91a0,0,0,0,1,0,0s0,0,0,0a0,0,0,0,1,0,0S17.41,1.9,17.41,1.91Z"/><path class="cls-8" d="M17.41,2.34s0,0,0,0a0,0,0,0,1,0,0s0,0,0,0A0,0,0,0,1,17.41,2.34Z"/><path class="cls-8" d="M17.41,2.76s0,0,0,0a0,0,0,0,1,0,0l0,0S17.41,2.75,17.41,2.76Z"/><path class="cls-8" d="M17.41,3.19s0,0,0,0a0,0,0,0,1,0,0s0,0,0,0A0,0,0,0,1,17.41,3.19Z"/><path class="cls-8" d="M17.41,3.61s0,0,0,0a0,0,0,0,1,0,0l0,0S17.41,3.6,17.41,3.61Z"/><path class="cls-8" d="M17.41,4s0,0,0,0l0,0s0,0,0,0A0,0,0,0,1,17.41,4Z"/><path class="cls-8" d="M17.41,4.46s0,0,0,0l0,0,0,0S17.41,4.45,17.41,4.46Z"/><path class="cls-8" d="M17.41,4.89s0,0,0,0a0,0,0,0,1,0,0s0,0,0,0A0,0,0,0,1,17.41,4.89Z"/><path class="cls-8" d="M17.41,5.31s0,0,0,0a0,0,0,0,1,0,0l0,0S17.41,5.3,17.41,5.31Z"/><path class="cls-8" d="M17.41,5.74s0,0,0,0l0,0s0,0,0,0A0,0,0,0,1,17.41,5.74Z"/><path class="cls-8" d="M17.41,6.16s0,0,0,0l0,0,0,0S17.41,6.15,17.41,6.16Z"/><path class="cls-8" d="M17.41,6.59s0,0,0,0l0,0s0,0,0,0A0,0,0,0,1,17.41,6.59Z"/><path class="cls-8" d="M17.41,7s0,0,0,0l0,0,0,0S17.41,7,17.41,7Z"/><path class="cls-8" d="M17.41,7.44s0,0,0,0l0,0s0,0,0,0A0,0,0,0,1,17.41,7.44Z"/><path class="cls-8" d="M17.41,7.86s0,0,0,0l0,0a0,0,0,0,1,0,0S17.41,7.85,17.41,7.86Z"/><circle class="cls-8" cx="17.81" r="0.03"/><circle class="cls-8" cx="17.81" cy="0.42" r="0.03"/><path class="cls-8" d="M17.84.85a0,0,0,0,1,0,0,0,0,0,0,1,0,0,0,0,0,0,1,0,0A0,0,0,0,1,17.84.85Z"/><path class="cls-8" d="M17.84,1.27a0,0,0,0,1,0,0,0,0,0,0,1,0,0s0,0,0,0S17.84,1.26,17.84,1.27Z"/><path class="cls-8" d="M17.84,1.7a0,0,0,0,1,0,0,0,0,0,0,1,0,0,0,0,0,0,1,0,0A0,0,0,0,1,17.84,1.7Z"/><circle class="cls-8" cx="17.81" cy="2.12" r="0.03"/><path class="cls-8" d="M17.83,2.55a0,0,0,0,1,0,0s0,0,0,0a0,0,0,0,1,0,0S17.83,2.53,17.83,2.55Z"/><path class="cls-8" d="M17.83,3s0,0,0,0a0,0,0,0,1,0,0s0,0,0,0A0,0,0,0,1,17.83,3Z"/><circle class="cls-8" cx="17.81" cy="3.4" r="0.03"/><path class="cls-8" d="M17.83,3.82s0,0,0,0a0,0,0,0,1,0,0s0,0,0,0A0,0,0,0,1,17.83,3.82Z"/><path class="cls-8" d="M17.83,4.25a0,0,0,0,1,0,0s0,0,0,0a0,0,0,0,1,0,0S17.83,4.23,17.83,4.25Z"/><path class="cls-8" d="M17.83,4.67s0,0,0,0a0,0,0,0,1,0,0s0,0,0,0A0,0,0,0,1,17.83,4.67Z"/><path class="cls-8" d="M17.83,5.1a0,0,0,0,1,0,0s0,0,0,0a0,0,0,0,1,0,0S17.83,5.08,17.83,5.1Z"/><path class="cls-8" d="M17.83,5.52s0,0,0,0a0,0,0,0,1,0,0s0,0,0,0A0,0,0,0,1,17.83,5.52Z"/><path class="cls-8" d="M17.83,6a0,0,0,0,1,0,0s0,0,0,0a0,0,0,0,1,0,0S17.83,5.93,17.83,6Z"/><path class="cls-8" d="M17.83,6.37s0,0,0,0a0,0,0,0,1,0,0l0,0A0,0,0,0,1,17.83,6.37Z"/><path class="cls-8" d="M17.83,6.8a0,0,0,0,1,0,0l0,0a0,0,0,0,1,0,0S17.83,6.78,17.83,6.8Z"/><path class="cls-8" d="M17.83,7.22s0,0,0,0a0,0,0,0,1,0,0s0,0,0,0A0,0,0,0,1,17.83,7.22Z"/><path class="cls-8" d="M17.83,7.65a0,0,0,0,1,0,0s0,0,0,0a0,0,0,0,1,0,0S17.83,7.63,17.83,7.65Z"/><path class="cls-8" d="M18.26.21a0,0,0,0,1,0,0,0,0,0,0,1,0,0,0,0,0,0,1,0,0A0,0,0,0,1,18.26.21Z"/><path class="cls-8" d="M18.26.64a0,0,0,0,1,0,0,0,0,0,0,1,0,0,0,0,0,0,1,0,0A0,0,0,0,1,18.26.64Z"/><path class="cls-8" d="M18.26,1.06a0,0,0,0,1,0,0,0,0,0,0,1,0,0,0,0,0,0,1,0,0A0,0,0,0,1,18.26,1.06Z"/><path class="cls-8" d="M18.26,1.49s0,0,0,0,0,0,0,0a0,0,0,0,1,0,0A0,0,0,0,1,18.26,1.49Z"/><path class="cls-8" d="M18.26,1.91a0,0,0,0,1,0,0,0,0,0,0,1,0,0,0,0,0,0,1,0,0A0,0,0,0,1,18.26,1.91Z"/><path class="cls-8" d="M18.26,2.34s0,0,0,0,0,0,0,0a0,0,0,0,1,0,0A0,0,0,0,1,18.26,2.34Z"/><path class="cls-8" d="M18.26,2.76a0,0,0,0,1,0,0,0,0,0,0,1,0,0,0,0,0,0,1,0,0A0,0,0,0,1,18.26,2.76Z"/><path class="cls-8" d="M18.26,3.19s0,0,0,0a0,0,0,0,1,0,0s0,0,0,0A0,0,0,0,1,18.26,3.19Z"/><path class="cls-8" d="M18.26,3.61a0,0,0,0,1,0,0s0,0,0,0,0,0,0,0A0,0,0,0,1,18.26,3.61Z"/><path class="cls-8" d="M18.26,4s0,0,0,0a0,0,0,0,1,0,0s0,0,0,0A0,0,0,0,1,18.26,4Z"/><path class="cls-8" d="M18.26,4.46a0,0,0,0,1,0,0s0,0,0,0,0,0,0,0A0,0,0,0,1,18.26,4.46Z"/><path class="cls-8" d="M18.26,4.89s0,0,0,0a0,0,0,0,1,0,0s0,0,0,0A0,0,0,0,1,18.26,4.89Z"/><path class="cls-8" d="M18.26,5.31a0,0,0,0,1,0,0s0,0,0,0,0,0,0,0A0,0,0,0,1,18.26,5.31Z"/><path class="cls-8" d="M18.26,5.74s0,0,0,0a0,0,0,0,1,0,0s0,0,0,0A0,0,0,0,1,18.26,5.74Z"/><path class="cls-8" d="M18.26,6.16a0,0,0,0,1,0,0s0,0,0,0,0,0,0,0A0,0,0,0,1,18.26,6.16Z"/><path class="cls-8" d="M18.26,6.59s0,0,0,0a0,0,0,0,1,0,0s0,0,0,0A0,0,0,0,1,18.26,6.59Z"/><path class="cls-8" d="M18.26,7a0,0,0,0,1,0,0s0,0,0,0,0,0,0,0A0,0,0,0,1,18.26,7Z"/><path class="cls-8" d="M18.26,7.44s0,0,0,0a0,0,0,0,1,0,0s0,0,0,0A0,0,0,0,1,18.26,7.44Z"/><path class="cls-8" d="M18.26,7.86a0,0,0,0,1,0,0s0,0,0,0,0,0,0,0A0,0,0,0,1,18.26,7.86Z"/><path class="cls-8" d="M18.69,0a0,0,0,0,1-.06,0,0,0,0,0,1,0,0A0,0,0,0,1,18.69,0Z"/><path class="cls-8" d="M18.69.42s0,0,0,0,0,0,0,0a0,0,0,0,1,.06,0Z"/><path class="cls-8" d="M18.69.85a0,0,0,0,1-.06,0,0,0,0,0,1,.06,0A0,0,0,0,1,18.69.85Z"/><path class="cls-8" d="M18.69,1.27a0,0,0,0,1-.06,0,0,0,0,1,1,.06,0Z"/><path class="cls-8" d="M18.69,1.7a0,0,0,1,1-.06,0,0,0,0,0,1,.06,0A0,0,0,0,1,18.69,1.7Z"/><path class="cls-8" d="M18.69,2.12a0,0,0,1,1-.06,0,0,0,0,0,1,.06,0Z"/><circle class="cls-8" cx="18.66" cy="2.55" r="0.03"/><path class="cls-8" d="M18.69,3a0,0,0,0,1,0,0,0,0,0,0,1,0,0,0,0,0,0,1,0,0A0,0,0,0,1,18.69,3Z"/><path class="cls-8" d="M18.69,3.4a0,0,0,0,1,0,0,0,0,0,0,1,0,0,0,0,0,0,1,0,0A0,0,0,0,1,18.69,3.4Z"/><circle class="cls-8" cx="18.66" cy="3.82" r="0.03"/><path class="cls-8" d="M18.69,4.25a0,0,0,0,1,0,0,0,0,0,0,1,0,0,0,0,0,0,1,0,0A0,0,0,0,1,18.69,4.25Z"/><path class="cls-8" d="M18.69,4.67a0,0,0,0,1,0,0,0,0,0,0,1,0,0,0,0,0,0,1,0,0A0,0,0,0,1,18.69,4.67Z"/><circle class="cls-8" cx="18.66" cy="5.1" r="0.03"/><circle class="cls-8" cx="18.66" cy="5.52" r="0.03"/><path class="cls-8" d="M18.69,6a0,0,0,0,1,0,0,0,0,0,0,1,0,0,0,0,0,0,1,0,0A0,0,0,0,1,18.69,6Z"/><path class="cls-8" d="M18.69,6.37a0,0,0,0,1,0,0,0,0,0,0,1,0,0,0,0,0,0,1,0,0A0,0,0,0,1,18.69,6.37Z"/><path class="cls-8" d="M18.69,6.8a0,0,0,0,1,0,0,0,0,0,0,1,0,0,0,0,0,0,1,0,0A0,0,0,0,1,18.69,6.8Z"/><circle class="cls-8" cx="18.66" cy="7.22" r="0.03"/><circle class="cls-8" cx="18.66" cy="7.65" r="0.03"/><path class="cls-8" d="M19.12.21a0,0,0,0,1,0,0s0,0,0,0a0,0,0,0,1,0,0S19.12.19,19.12.21Z"/><path class="cls-8" d="M19.12.64a0,0,0,0,1,0,0,0,0,0,0,1,0,0s0,0,0,0A0,0,0,0,1,19.12.64Z"/><circle class="cls-8" cx="19.08" cy="1.06" r="0.03"/><circle class="cls-8" cx="19.08" cy="1.49" r="0.03"/><path class="cls-8" d="M19.12,1.91s0,0,0,0a0,0,0,0,1,0-.06S19.12,1.89,19.12,1.91Z"/><path class="cls-8" d="M19.12,2.34a0,0,0,0,1,0,0,0,0,0,0,1,0,0s0,0,0,0A0,0,0,0,1,19.12,2.34Z"/><circle class="cls-8" cx="19.08" cy="2.76" r="0.03"/><circle class="cls-8" cx="19.08" cy="3.19" r="0.03"/><path class="cls-8" d="M19.11,3.61a0,0,0,0,1,0,0,0,0,0,0,1,0-.06A0,0,0,0,1,19.11,3.61Z"/><path class="cls-8" d="M19.11,4a0,0,0,0,1,0,0l0,0a0,0,0,0,1,0,0S19.11,4,19.11,4Z"/><circle class="cls-8" cx="19.08" cy="4.46" r="0.03"/><circle class="cls-8" cx="19.08" cy="4.89" r="0.03"/><path class="cls-8" d="M19.11,5.31a0,0,0,0,1,0,0,0,0,0,1,1,0-.06A0,0,0,0,1,19.11,5.31Z"/><path class="cls-8" d="M19.11,5.74a0,0,0,0,1,0,0l0,0a0,0,0,0,1,0,0S19.11,5.72,19.11,5.74Z"/><circle class="cls-8" cx="19.08" cy="6.16" r="0.03"/><path class="cls-8" d="M19.11,6.59a0,0,0,0,1,0,0l0,0a0,0,0,0,1,0,0S19.11,6.57,19.11,6.59Z"/><path class="cls-8" d="M19.11,7a0,0,0,0,1,0,0,0,0,0,1,1,0-.06A0,0,0,0,1,19.11,7Z"/><circle class="cls-8" cx="19.08" cy="7.44" r="0.03"/><circle class="cls-8" cx="19.08" cy="7.86" r="0.03"/><path class="cls-8" d="M19.54,0s0,0,0,0a0,0,0,0,1,0,0,0,0,0,0,1,0,0S19.54,0,19.54,0Z"/><path class="cls-8" d="M19.54.42s0,0,0,0a0,0,0,0,1,0,0s0,0,0,0A0,0,0,0,1,19.54.42Z"/><path class="cls-8" d="M19.54.85a0,0,0,0,1,0,0s0,0,0,0a0,0,0,0,1,0,0S19.54.83,19.54.85Z"/><path class="cls-8" d="M19.54,1.27s0,0,0,0a0,0,0,0,1,0,0s0,0,0,0A0,0,0,0,1,19.54,1.27Z"/><path class="cls-8" d="M19.54,1.7a0,0,0,0,1,0,0s0,0,0,0a0,0,0,0,1,0,0S19.54,1.68,19.54,1.7Z"/><path class="cls-8" d="M19.54,2.12s0,0,0,0a0,0,0,0,1,0,0s0,0,0,0A0,0,0,0,1,19.54,2.12Z"/><path class="cls-8" d="M19.54,2.55a0,0,0,0,1,0,0s0,0,0,0a0,0,0,0,1,0,0S19.54,2.53,19.54,2.55Z"/><path class="cls-8" d="M19.54,3s0,0,0,0a0,0,0,0,1,0,0s0,0,0,0A0,0,0,0,1,19.54,3Z"/><path class="cls-8" d="M19.54,3.4a0,0,0,0,1,0,0s0,0,0,0a0,0,0,0,1,0,0S19.54,3.38,19.54,3.4Z"/><circle class="cls-8" cx="19.51" cy="3.82" r="0.03"/><path class="cls-8" d="M19.54,4.25a0,0,0,0,1,0,0s0,0,0,0,0,0,0,0A0,0,0,0,1,19.54,4.25Z"/><path class="cls-8" d="M19.54,4.67s0,0,0,0a0,0,0,0,1,0,0s0,0,0,0A0,0,0,0,1,19.54,4.67Z"/><circle class="cls-8" cx="19.51" cy="5.1" r="0.03"/><circle class="cls-8" cx="19.51" cy="5.52" r="0.03"/><path class="cls-8" d="M19.54,6a0,0,0,0,1,0,0s0,0,0,0a0,0,0,0,1,0,0S19.54,5.93,19.54,6Z"/><path class="cls-8" d="M19.54,6.37s0,0,0,0a0,0,0,0,1,0,0s0,0,0,0A0,0,0,0,1,19.54,6.37Z"/><path class="cls-8" d="M19.54,6.8a0,0,0,0,1,0,0s0,0,0,0a0,0,0,0,1,0,0S19.54,6.78,19.54,6.8Z"/><circle class="cls-8" cx="19.51" cy="7.22" r="0.03"/><circle class="cls-8" cx="19.51" cy="7.65" r="0.03"/><path class="cls-8" d="M20,.21a0,0,0,0,1-.08,0,0,0,0,0,1,.08,0Z"/><path class="cls-8" d="M20,.64s0,0,0,0a0,0,0,0,1,0,0s0,0,0,0A0,0,0,0,1,20,.64Z"/><path class="cls-8" d="M20,1.06a0,0,0,0,1,0,0s0,0,0,0,0,0,0,0A0,0,0,0,1,20,1.06Z"/><path class="cls-8" d="M20,1.49s0,0,0,0a0,0,0,0,1,0,0s0,0,0,0A0,0,0,0,1,20,1.49Z"/><path class="cls-8" d="M20,1.91a0,0,0,0,1,0,0s0,0,0,0,0,0,0,0A0,0,0,0,1,20,1.91Z"/><path class="cls-8" d="M20,2.34s0,0,0,0a0,0,0,0,1,0,0s0,0,0,0A0,0,0,0,1,20,2.34Z"/><path class="cls-8" d="M20,2.76a0,0,0,0,1,0,0s0,0,0,0,0,0,0,0A0,0,0,0,1,20,2.76Z"/><path class="cls-8" d="M20,3.19s0,0,0,0a0,0,0,0,1,0,0s0,0,0,0A0,0,0,0,1,20,3.19Z"/><path class="cls-8" d="M20,3.61a0,0,0,0,1,0,0s0,0,0,0,0,0,0,0A0,0,0,0,1,20,3.61Z"/><path class="cls-8" d="M20,4s0,0,0,0a0,0,0,0,1,0,0s0,0,0,0A0,0,0,0,1,20,4Z"/><path class="cls-8" d="M20,4.46a0,0,0,0,1,0,0s0,0,0,0,0,0,0,0A0,0,0,0,1,20,4.46Z"/><path class="cls-8" d="M20,4.89s0,0,0,0a0,0,0,0,1,0,0s0,0,0,0A0,0,0,0,1,20,4.89Z"/><path class="cls-8" d="M20,5.31a0,0,0,0,1,0,0s0,0,0,0a0,0,0,0,1,0,0S20,5.29,20,5.31Z"/><path class="cls-8" d="M20,5.74s0,0,0,0a0,0,0,0,1,0,0s0,0,0,0A0,0,0,0,1,20,5.74Z"/><path class="cls-8" d="M20,6.16a0,0,0,0,1,0,0s0,0,0,0a0,0,0,0,1,0,0S20,6.14,20,6.16Z"/><path class="cls-8" d="M20,6.59a0,0,0,0,1,0,0,0,0,0,0,1,0,0s0,0,0,0A0,0,0,0,1,20,6.59Z"/><path class="cls-8" d="M20,7a0,0,0,0,1,0,0s0,0,0,0,0,0,0,0A0,0,0,0,1,20,7Z"/><path class="cls-8" d="M20,7.44a0,0,0,0,1,0,0,0,0,0,0,1,0,0s0,0,0,0A0,0,0,0,1,20,7.44Z"/><path class="cls-8" d="M20,7.86a0,0,0,0,1,0,0s0,0,0,0,0,0,0,0A0,0,0,0,1,20,7.86Z"/><path class="cls-8" d="M20.4,0a0,0,0,0,1,0,0,0,0,0,0,1,0,0,0,0,0,0,1,.08,0Z"/><path class="cls-8" d="M20.4.42a0,0,0,1,1-.08,0,0,0,0,1,1,.08,0Z"/><path class="cls-8" d="M20.4.85a0,0,0,1,1-.08,0,0,0,0,0,1,.08,0A0,0,0,0,1,20.4.85Z"/><path class="cls-8" d="M20.4,1.27a0,0,0,0,1-.08,0,0,0,0,0,1,.08,0Z"/><path class="cls-8" d="M20.4,1.7a0,0,0,0,1-.08,0,0,0,0,0,1,.08,0A0,0,0,0,1,20.4,1.7Z"/><path class="cls-8" d="M20.4,2.12a0,0,0,0,1-.08,0,0,0,0,0,1,.08,0Z"/><path class="cls-8" d="M20.4,2.55a0,0,0,1,1-.08,0,0,0,0,0,1,.08,0A0,0,0,0,1,20.4,2.55Z"/><path class="cls-8" d="M20.4,3a0,0,0,0,1-.08,0,0,0,0,0,1,.08,0A0,0,0,0,1,20.4,3Z"/><circle class="cls-8" cx="20.36" cy="3.4" r="0.04"/><circle class="cls-8" cx="20.36" cy="3.82" r="0.04"/><path class="cls-8" d="M20.4,4.25a0,0,0,0,1-.08,0,0,0,0,0,1,.08,0A0,0,0,0,1,20.4,4.25Z"/><path class="cls-8" d="M20.4,4.67a0,0,0,0,1-.08,0s0,0,0,0S20.4,4.65,20.4,4.67Z"/><circle class="cls-8" cx="20.36" cy="5.1" r="0.04"/><circle class="cls-8" cx="20.36" cy="5.52" r="0.04"/><path class="cls-8" d="M20.4,6a0,0,0,0,1-.08,0,0,0,0,0,1,.08,0A0,0,0,0,1,20.4,6Z"/><path class="cls-8" d="M20.4,6.37a0,0,0,1,1-.08,0s0,0,0,0S20.4,6.35,20.4,6.37Z"/><path class="cls-8" d="M20.4,6.8a0,0,0,1,1-.08,0,0,0,0,0,1,.08,0A0,0,0,0,1,20.4,6.8Z"/><circle class="cls-8" cx="20.36" cy="7.22" r="0.04"/><circle class="cls-8" cx="20.36" cy="7.65" r="0.04"/><circle class="cls-8" cx="20.78" cy="0.21" r="0.04"/><path class="cls-8" d="M20.83.64a0,0,0,0,1,0,0,0,0,0,0,1,0,0,0,0,0,0,1,0-.05A0,0,0,0,1,20.83.64Z"/><circle class="cls-8" cx="20.78" cy="1.06" r="0.04"/><circle class="cls-8" cx="20.78" cy="1.49" r="0.04"/><path class="cls-8" d="M20.82,1.91a0,0,0,0,1,0,0,0,0,0,1,1,0-.08A0,0,0,0,1,20.82,1.91Z"/><path class="cls-8" d="M20.82,2.34a0,0,0,0,1,0,0,0,0,0,0,1,0,0,0,0,0,0,1,0,0S20.82,2.31,20.82,2.34Z"/><circle class="cls-8" cx="20.78" cy="2.76" r="0.04"/><circle class="cls-8" cx="20.78" cy="3.19" r="0.04"/><path class="cls-8" d="M20.82,3.61a0,0,0,0,1,0,0,0,0,0,1,1,0-.08A0,0,0,0,1,20.82,3.61Z"/><circle class="cls-8" cx="20.78" cy="4.04" r="0.04"/><path class="cls-8" d="M20.82,4.46a0,0,0,0,1,0,0,0,0,0,1,1,0-.08A0,0,0,0,1,20.82,4.46Z"/><circle class="cls-8" cx="20.78" cy="4.89" r="0.04"/><path class="cls-8" d="M20.82,5.31a0,0,0,0,1-.08,0,0,0,0,0,1,.08,0A0,0,0,0,1,20.82,5.31Z"/><path class="cls-8" d="M20.82,5.74a0,0,0,0,1-.08,0,0,0,0,1,1,.08,0Z"/><circle class="cls-8" cx="20.78" cy="6.16" r="0.04"/><path class="cls-8" d="M20.82,6.59a0,0,0,0,1-.08,0,0,0,0,0,1,.08,0Z"/><path class="cls-8" d="M20.82,7a0,0,0,0,1-.08,0,0,0,0,0,1,.08,0A0,0,0,0,1,20.82,7Z"/><path class="cls-8" d="M20.82,7.44a0,0,0,0,1-.08,0,0,0,0,1,1,.08,0Z"/><circle class="cls-8" cx="20.78" cy="7.86" r="0.04"/></g></g></g></g><g class="cls-7"><g class="cls-9"><g class="cls-22"><g class="cls-10"><polygon class="cls-8" points="11.11 0.39 11.11 0.39 11.12 0.39 11.12 0.39 11.11 0.39"/><polygon class="cls-8" points="10.69 0.6 10.69 0.6 10.69 0.6 10.69 0.6 10.69 0.6"/><circle class="cls-8" cx="10.69" cy="0.17"/><polygon class="cls-8" points="10.26 1.24 10.27 1.24 10.27 1.24 10.27 1.24 10.26 1.24"/><polygon class="cls-8" points="10.26 0.81 10.27 0.81 10.27 0.81 10.27 0.81 10.26 0.81"/><polygon class="cls-8" points="10.26 0.39 10.27 0.38 10.27 0.39 10.27 0.39 10.26 0.39"/><polygon class="cls-8" points="9.84 1.87 9.84 1.87 9.84 1.87 9.84 1.88 9.84 1.87"/><polygon class="cls-8" points="9.84 1.45 9.84 1.45 9.84 1.45 9.84 1.45 9.84 1.45"/><polygon class="cls-8" points="9.84 1.02 9.84 1.02 9.84 1.02 9.84 1.03 9.84 1.02"/><circle class="cls-8" cx="9.84" cy="0.6" r="0.01"/><path class="cls-8" d="M9.83.17a0,0,0,0,1,0,0,0,0,0,0,1,0,0s0,0,0,0S9.83.18,9.83.17Z"/><polygon class="cls-8" points="9.41 2.51 9.41 2.51 9.42 2.51 9.42 2.51 9.41 2.51"/><polygon class="cls-8" points="9.41 2.09 9.41 2.09 9.42 2.09 9.42 2.09 9.41 2.09"/><polygon class="cls-8" points="9.41 1.66 9.41 1.66 9.42 1.66 9.41 1.66 9.41 1.66"/><circle class="cls-8" cx="9.42" cy="1.24" r="0.01"/><path class="cls-8" d="M9.41.81a0,0,0,0,1,0,0h0Z"/><path class="cls-8" d="M9.4.39a0,0,0,0,1,0,0,0,0,0,0,1,0,0h0Z"/><polygon class="cls-8" points="8.99 3.15 8.99 3.15 8.99 3.15 8.99 3.15 8.99 3.15"/><polygon class="cls-8" points="8.99 2.72 8.99 2.72 8.99 2.72 8.99 2.73 8.99 2.72"/><polygon class="cls-8" points="8.99 2.3 8.99 2.3 8.99 2.3 8.99 2.3 8.99 2.3"/><polygon class="cls-8" points="8.99 1.87 8.99 1.87 8.99 1.87 8.99 1.88 8.99 1.87"/><polygon class="cls-8" points="8.98 1.45 8.99 1.44 9 1.45 8.99 1.46 8.98 1.45"/><path class="cls-8" d="M9,1A0,0,0,0,1,9,1,0,0,0,0,1,9,1S9,1,9,1,9,1,9,1Z"/><path class="cls-8" d="M9,.6a0,0,0,0,1,0,0,0,0,0,0,1,0,0s0,0,0,0S9,.61,9,.6Z"/><path class="cls-8" d="M9,.17s0,0,0,0,0,0,0,0,0,0,0,0S9,.19,9,.17Z"/><polygon class="cls-8" points="8.56 7.61 8.56 7.61 8.57 7.61 8.56 7.61 8.56 7.61"/><polygon class="cls-8" points="8.56 7.19 8.56 7.18 8.57 7.18 8.56 7.19 8.56 7.19"/><polygon class="cls-8" points="8.56 6.76 8.56 6.76 8.57 6.76 8.57 6.76 8.56 6.76"/><polygon class="cls-8" points="8.56 5.06 8.56 5.06 8.57 5.06 8.57 5.06 8.56 5.06"/><polygon class="cls-8" points="8.56 4.64 8.56 4.63 8.57 4.64 8.57 4.64 8.56 4.64"/><polygon class="cls-8" points="8.56 4.21 8.56 4.21 8.57 4.21 8.57 4.21 8.56 4.21"/><polygon class="cls-8" points="8.56 3.79 8.56 3.79 8.57 3.79 8.57 3.79 8.56 3.79"/><polygon class="cls-8" points="8.56 3.36 8.56 3.36 8.57 3.36 8.56 3.36 8.56 3.36"/><polygon class="cls-8" points="8.56 2.94 8.56 2.93 8.57 2.94 8.56 2.94 8.56 2.94"/><polygon class="cls-8" points="8.56 2.51 8.56 2.51 8.57 2.51 8.56 2.52 8.56 2.51"/><path class="cls-8" d="M8.56,2.09h0Z"/><path class="cls-8" d="M8.56,1.66a0,0,0,0,1,0,0h0S8.56,1.67,8.56,1.66Z"/><path class="cls-8" d="M8.55,1.24a0,0,0,0,1,0,0,0,0,0,0,1,0,0h0Z"/><path class="cls-8" d="M8.55.81s0,0,0,0a0,0,0,0,1,0,0v0Z"/><path class="cls-8" d="M8.55.39s0,0,0,0a0,0,0,0,1,0,0,0,0,0,0,1,0,0S8.55.4,8.55.39Z"/><polygon class="cls-8" points="8.14 7.82 8.14 7.82 8.14 7.82 8.14 7.82 8.14 7.82"/><polygon class="cls-8" points="8.14 7.4 8.14 7.4 8.14 7.4 8.14 7.4 8.14 7.4"/><polygon class="cls-8" points="8.14 6.97 8.14 6.97 8.14 6.97 8.14 6.97 8.14 6.97"/><polygon class="cls-8" points="8.14 6.55 8.14 6.55 8.14 6.55 8.14 6.55 8.14 6.55"/><polygon class="cls-8" points="8.14 6.12 8.14 6.12 8.14 6.12 8.14 6.13 8.14 6.12"/><polygon class="cls-8" points="8.14 5.7 8.14 5.7 8.14 5.7 8.14 5.7 8.14 5.7"/><polygon class="cls-8" points="8.14 5.27 8.14 5.27 8.14 5.27 8.14 5.28 8.14 5.27"/><polygon class="cls-8" points="8.14 4.85 8.14 4.85 8.14 4.85 8.14 4.85 8.14 4.85"/><polygon class="cls-8" points="8.14 4.42 8.14 4.42 8.14 4.42 8.14 4.43 8.14 4.42"/><polygon class="cls-8" points="8.14 4 8.14 4 8.14 4 8.14 4 8.14 4"/><polygon class="cls-8" points="8.14 3.57 8.14 3.57 8.14 3.57 8.14 3.58 8.14 3.57"/><circle class="cls-8" cx="8.14" cy="3.15"/><path class="cls-8" d="M8.13,2.72h0Z"/><path class="cls-8" d="M8.13,2.3h0Z"/><circle class="cls-8" cx="8.14" cy="1.87" r="0.01"/><path class="cls-8" d="M8.13,1.45s0,0,0,0a0,0,0,0,1,0,0s0,0,0,0S8.13,1.46,8.13,1.45Z"/><path class="cls-8" d="M8.12,1s0,0,0,0,0,0,0,0a0,0,0,0,1,0,0A0,0,0,0,1,8.16,1Z"/><path class="cls-8" d="M8.12.6a0,0,0,0,1,0,0,0,0,0,0,1,0,0,0,0,0,0,1,0,0A0,0,0,0,1,8.16.6Z"/><path class="cls-8" d="M8.12.17a0,0,0,0,1,0,0s0,0,0,0a0,0,0,0,1,0,0S8.12.19,8.12.17Z"/><polygon class="cls-8" points="7.71 7.61 7.72 7.61 7.72 7.61 7.72 7.61 7.71 7.61"/><polygon class="cls-8" points="7.71 7.19 7.72 7.18 7.72 7.19 7.72 7.19 7.71 7.19"/><polygon class="cls-8" points="7.71 6.76 7.72 6.76 7.72 6.76 7.72 6.76 7.71 6.76"/><polygon class="cls-8" points="7.71 6.34 7.72 6.33 7.72 6.34 7.72 6.34 7.71 6.34"/><polygon class="cls-8" points="7.71 5.91 7.72 5.91 7.72 5.91 7.72 5.92 7.71 5.91"/><polygon class="cls-8" points="7.71 5.49 7.72 5.48 7.72 5.49 7.72 5.49 7.71 5.49"/><polygon class="cls-8" points="7.71 5.06 7.72 5.06 7.72 5.06 7.72 5.07 7.71 5.06"/><polygon class="cls-8" points="7.71 4.64 7.72 4.63 7.72 4.64 7.72 4.64 7.71 4.64"/><polygon class="cls-8" points="7.71 4.21 7.72 4.21 7.72 4.21 7.72 4.22 7.71 4.21"/><polygon class="cls-8" points="7.71 3.79 7.72 3.78 7.72 3.79 7.72 3.79 7.71 3.79"/><path class="cls-8" d="M7.71,3.36h0S7.71,3.37,7.71,3.36Z"/><path class="cls-8" d="M7.71,2.94h0A0,0,0,0,1,7.71,2.94Z"/><path class="cls-8" d="M7.7,2.51h0a0,0,0,0,1,0,0S7.7,2.52,7.7,2.51Z"/><path class="cls-8" d="M7.7,2.09a0,0,0,0,1,0,0v0h0Z"/><path class="cls-8" d="M7.7,1.66s0,0,0,0a0,0,0,0,1,0,0,0,0,0,0,1,0,0A0,0,0,0,1,7.7,1.66Z"/><path class="cls-8" d="M7.7,1.24a0,0,0,0,1,0,0s0,0,0,0,0,0,0,0A0,0,0,0,1,7.7,1.24Z"/><path class="cls-8" d="M7.69.81s0,0,0,0a0,0,0,0,1,0,0,0,0,0,0,1,0,0S7.69.82,7.69.81Z"/><path class="cls-8" d="M7.69.39a0,0,0,0,1,0,0s0,0,0,0a0,0,0,0,1,0,0S7.69.4,7.69.39Z"/><polygon class="cls-8" points="7.29 7.82 7.29 7.82 7.3 7.82 7.29 7.83 7.29 7.82"/><polygon class="cls-8" points="7.29 7.4 7.29 7.39 7.3 7.4 7.29 7.4 7.29 7.4"/><circle class="cls-8" cx="7.29" cy="6.97"/><circle class="cls-8" cx="7.29" cy="6.55"/><circle class="cls-8" cx="7.29" cy="6.12"/><polygon class="cls-8" points="7.29 5.7 7.29 5.69 7.3 5.7 7.29 5.71 7.29 5.7"/><polygon class="cls-8" points="7.29 5.27 7.29 5.27 7.3 5.27 7.29 5.28 7.29 5.27"/><polygon class="cls-8" points="7.29 4.85 7.29 4.84 7.3 4.85 7.29 4.86 7.29 4.85"/><path class="cls-8" d="M7.28,4.42h0Z"/><path class="cls-8" d="M7.28,4h0Z"/><path class="cls-8" d="M7.28,3.57h0s0,0,0,0A0,0,0,0,1,7.28,3.57Z"/><path class="cls-8" d="M7.28,3.15h0s0,0,0,0S7.28,3.16,7.28,3.15Z"/><path class="cls-8" d="M7.28,2.72a0,0,0,0,1,0,0,0,0,0,0,1,0,0s0,0,0,0S7.28,2.73,7.28,2.72Z"/><path class="cls-8" d="M7.28,2.3s0,0,0,0a0,0,0,0,1,0,0s0,0,0,0S7.28,2.31,7.28,2.3Z"/><path class="cls-8" d="M7.27,1.87s0,0,0,0,0,0,0,0a0,0,0,0,1,0,0Z"/><path class="cls-8" d="M7.27,1.45a0,0,0,0,1,0,0,0,0,0,0,1,0,0,0,0,0,0,1,0,0A0,0,0,0,1,7.31,1.45Z"/><circle class="cls-8" cx="7.29" cy="1.02" r="0.02"/><path class="cls-8" d="M7.26.6a0,0,0,0,1,0,0,0,0,0,0,1,0,0,0,0,0,0,1,0,0A0,0,0,0,1,7.26.6Z"/><path class="cls-8" d="M7.26.17a0,0,0,0,1,.06,0s0,0,0,0S7.26.19,7.26.17Z"/><path class="cls-8" d="M6.86,7.61h0Z"/><path class="cls-8" d="M6.86,7.19h0Z"/><path class="cls-8" d="M6.86,6.76h0Z"/><path class="cls-8" d="M6.86,6.34h0Z"/><path class="cls-8" d="M6.86,5.91h0Z"/><path class="cls-8" d="M6.86,5.49h0Z"/><path class="cls-8" d="M6.86,5.06h0S6.86,5.07,6.86,5.06Z"/><path class="cls-8" d="M6.86,4.64h0A0,0,0,0,1,6.86,4.64Z"/><path class="cls-8" d="M6.86,4.21h0Z"/><path class="cls-8" d="M6.85,3.79a0,0,0,0,1,0,0,0,0,0,0,1,0,0h0Z"/><path class="cls-8" d="M6.85,3.36h0a0,0,0,0,1,0,0A0,0,0,0,1,6.85,3.36Z"/><path class="cls-8" d="M6.85,2.94l0,0v0a0,0,0,0,1,0,0S6.85,3,6.85,2.94Z"/><path class="cls-8" d="M6.85,2.51l0,0s0,0,0,0,0,0,0,0A0,0,0,0,1,6.85,2.51Z"/><path class="cls-8" d="M6.85,2.09l0,0s0,0,0,0,0,0,0,0A0,0,0,0,1,6.85,2.09Z"/><path class="cls-8" d="M6.84,1.66s0,0,0,0a0,0,0,0,1,0,0,0,0,0,0,1,0,0S6.84,1.67,6.84,1.66Z"/><path class="cls-8" d="M6.84,1.24a0,0,0,0,1,0,0s0,0,0,0a0,0,0,0,1,0,0S6.84,1.25,6.84,1.24Z"/><path class="cls-8" d="M6.84.81a0,0,0,0,1,0,0s0,0,0,0,0,0,0,0A0,0,0,0,1,6.84.81Z"/><path class="cls-8" d="M6.83.39s0,0,0,0a0,0,0,0,1,0,0,0,0,0,0,1-.07,0Z"/><path class="cls-8" d="M6.43,7.82h0a0,0,0,0,1,0,0h0Z"/><path class="cls-8" d="M6.43,7.4s0,0,0,0,0,0,0,0h0Z"/><path class="cls-8" d="M6.43,7h0s0,0,0,0S6.43,7,6.43,7Z"/><path class="cls-8" d="M6.43,6.55h0Z"/><path class="cls-8" d="M6.43,6.12h0Z"/><path class="cls-8" d="M6.43,5.7h0Z"/><path class="cls-8" d="M6.43,5.27h0s0,0,0,0S6.43,5.28,6.43,5.27Z"/><path class="cls-8" d="M6.43,4.85h0s0,0,0,0S6.43,4.86,6.43,4.85Z"/><path class="cls-8" d="M6.43,4.42h0s0,0,0,0S6.43,4.43,6.43,4.42Z"/><path class="cls-8" d="M6.43,4s0,0,0,0,0,0,0,0h0Z"/><path class="cls-8" d="M6.43,3.57h0a0,0,0,0,1,0,0S6.43,3.58,6.43,3.57Z"/><path class="cls-8" d="M6.42,3.15a0,0,0,0,1,0,0l0,0a0,0,0,0,1,0,0A0,0,0,0,1,6.46,3.15Z"/><path class="cls-8" d="M6.42,2.72s0,0,0,0,0,0,0,0l0,0A0,0,0,0,1,6.42,2.72Z"/><path class="cls-8" d="M6.42,2.3a0,0,0,0,1,0,0,0,0,0,0,1,0,0,0,0,0,0,1,0,0A0,0,0,0,1,6.46,2.3Z"/><path class="cls-8" d="M6.42,1.87a0,0,0,0,1,0,0,0,0,0,0,1,0,0s0,0,0,0S6.42,1.89,6.42,1.87Z"/><circle class="cls-8" cx="6.44" cy="1.45" r="0.03"/><path class="cls-8" d="M6.41,1a0,0,0,1,1,.06,0,0,0,0,1,1-.06,0Z"/><path class="cls-8" d="M6.41.6a0,0,0,1,1,.06,0,0,0,0,1,1-.06,0Z"/><path class="cls-8" d="M6.41.17a0,0,0,0,1,0,0,0,0,0,0,1,0,0,0,0,0,0,1,0,0S6.41.19,6.41.17Z"/><circle class="cls-8" cx="6.02" cy="7.61" r="0.01"/><path class="cls-8" d="M6,7.19a0,0,0,0,1,0,0,0,0,0,0,1,0,0H6Z"/><circle class="cls-8" cx="6.02" cy="6.76" r="0.01"/><path class="cls-8" d="M6,6.34l0,0v0H6Z"/><path class="cls-8" d="M6,5.91H6Z"/><path class="cls-8" d="M6,5.49a0,0,0,0,1,0,0v0H6Z"/><path class="cls-8" d="M6,5.06H6a0,0,0,0,1,0,0A0,0,0,0,1,6,5.06Z"/><path class="cls-8" d="M6,4.64l0,0v0H6Z"/><circle class="cls-8" cx="6.02" cy="4.21" r="0.02"/><path class="cls-8" d="M6,3.79a0,0,0,0,1,0,0s0,0,0,0H6Z"/><path class="cls-8" d="M6,3.36l0,0s0,0,0,0,0,0,0,0A0,0,0,0,1,6,3.36Z"/><path class="cls-8" d="M6,2.94s0,0,0,0a0,0,0,0,1,0,0,0,0,0,0,1,0,0S6,3,6,2.94Z"/><path class="cls-8" d="M6,2.51s0,0,0,0a0,0,0,0,1,0,0,0,0,0,0,1,0,0S6,2.52,6,2.51Z"/><path class="cls-8" d="M6,2.09a0,0,0,0,1,0,0s0,0,0,0a0,0,0,0,1,0,0S6,2.1,6,2.09Z"/><path class="cls-8" d="M6,1.66a0,0,0,0,1,0,0s0,0,0,0,0,0,0,0A0,0,0,0,1,6,1.66Z"/><path class="cls-8" d="M6,1.24a0,0,0,0,1,0,0,0,0,0,0,1,0,0,0,0,0,0,1,0,0A0,0,0,0,1,6,1.24Z"/><circle class="cls-8" cx="6.02" cy="0.81" r="0.03"/><circle class="cls-8" cx="6.02" cy="0.39" r="0.04"/><path class="cls-8" d="M5.58,7.82a0,0,0,0,1,0,0,0,0,0,0,1,0,0s0,0,0,0S5.58,7.83,5.58,7.82Z"/><path class="cls-8" d="M5.58,7.4s0,0,0,0a0,0,0,0,1,0,0h0Z"/><path class="cls-8" d="M5.58,7h0a0,0,0,0,1,0,0S5.58,7,5.58,7Z"/><path class="cls-8" d="M5.58,6.55s0,0,0,0l0,0h0Z"/><path class="cls-8" d="M5.58,6.12h0l0,0S5.58,6.13,5.58,6.12Z"/><path class="cls-8" d="M5.58,5.7s0,0,0,0l0,0h0Z"/><circle class="cls-8" cx="5.59" cy="5.27" r="0.02"/><circle class="cls-8" cx="5.59" cy="4.85" r="0.02"/><circle class="cls-8" cx="5.59" cy="4.42" r="0.02"/><path class="cls-8" d="M5.57,4a0,0,0,0,1,0,0l0,0,0,0Z"/><circle class="cls-8" cx="5.59" cy="3.57" r="0.02"/><path class="cls-8" d="M5.57,3.15l0,0,0,0a0,0,0,0,1,0,0A0,0,0,0,1,5.61,3.15Z"/><path class="cls-8" d="M5.57,2.72a0,0,0,0,1,0,0s0,0,0,0a0,0,0,0,1,0,0S5.57,2.74,5.57,2.72Z"/><circle class="cls-8" cx="5.59" cy="2.3" r="0.03"/><path class="cls-8" d="M5.56,1.87a0,0,0,0,1,.06,0,0,0,0,0,1-.06,0Z"/><circle class="cls-8" cx="5.59" cy="1.45" r="0.03"/><path class="cls-8" d="M5.56,1a0,0,0,0,1,0,0,0,0,0,0,1,0,0,0,0,0,0,1,0,0S5.56,1,5.56,1Z"/><path class="cls-8" d="M5.55.6a0,0,0,1,1,.08,0,0,0,0,0,1-.08,0A0,0,0,0,1,5.55.6Z"/><path class="cls-8" d="M5.55.17a0,0,0,0,1,.08,0,0,0,0,1,1-.08,0Z"/><path class="cls-8" d="M5.15,7.61a0,0,0,0,1,0,0s0,0,0,0,0,0,0,0Z"/><path class="cls-8" d="M5.15,7.19a0,0,0,0,1,0,0s0,0,0,0h0Z"/><path class="cls-8" d="M5.15,6.76l0,0s0,0,0,0,0,0,0,0A0,0,0,0,1,5.15,6.76Z"/><path class="cls-8" d="M5.15,6.34l0,0s0,0,0,0h0Z"/><path class="cls-8" d="M5.15,5.91a0,0,0,0,1,0,0s0,0,0,0,0,0,0,0Z"/><path class="cls-8" d="M5.15,5.49a0,0,0,0,1,0,0s0,0,0,0,0,0,0,0Z"/><path class="cls-8" d="M5.15,5.06l0,0s0,0,0,0,0,0,0,0A0,0,0,0,1,5.15,5.06Z"/><path class="cls-8" d="M5.15,4.64s0,0,0,0l0,0a0,0,0,0,1,0,0S5.15,4.65,5.15,4.64Z"/><circle class="cls-8" cx="5.17" cy="4.21" r="0.02"/><path class="cls-8" d="M5.14,3.79a0,0,0,0,1,0,0s0,0,0,0l0,0S5.14,3.8,5.14,3.79Z"/><path class="cls-8" d="M5.14,3.36s0,0,0,0l0,0s0,0,0,0A0,0,0,0,1,5.14,3.36Z"/><path class="cls-8" d="M5.14,2.94a0,0,0,0,1,0,0s0,0,0,0a0,0,0,0,1,0,0S5.14,3,5.14,2.94Z"/><path class="cls-8" d="M5.14,2.51a0,0,0,0,1,0,0s0,0,0,0,0,0,0,0A0,0,0,0,1,5.14,2.51Z"/><path class="cls-8" d="M5.14,2.09a0,0,0,0,1,0,0,0,0,0,0,1,0,0,0,0,0,0,1,0,0A0,0,0,0,1,5.14,2.09Z"/><path class="cls-8" d="M5.13,1.66s0,0,0,0a0,0,0,1,1,0,.06S5.13,1.68,5.13,1.66Z"/><path class="cls-8" d="M5.13,1.24a0,0,0,0,1,0,0s0,0,0,0a0,0,0,0,1,0,0S5.13,1.26,5.13,1.24Z"/><path class="cls-8" d="M5.13.81a0,0,0,0,1,0,0s0,0,0,0,0,0,0,0A0,0,0,0,1,5.13.81Z"/><path class="cls-8" d="M5.12.39a0,0,0,0,1,0,0,0,0,0,0,1,0,0,0,0,0,0,1,0,0A0,0,0,0,1,5.12.39Z"/><path class="cls-8" d="M4.72,7.82a0,0,0,0,1,0,0,0,0,0,0,1,0,0l0,0Z"/><path class="cls-8" d="M4.72,7.4a0,0,0,0,1,0,0,0,0,0,0,1,0,0l0,0Z"/><path class="cls-8" d="M4.72,7l0,0,0,0a0,0,0,0,1,0,0A0,0,0,0,1,4.76,7Z"/><path class="cls-8" d="M4.72,6.55l0,0,0,0,0,0Z"/><path class="cls-8" d="M4.72,6.12l0,0,0,0,0,0Z"/><path class="cls-8" d="M4.72,5.7l0,0,0,0,0,0Z"/><circle class="cls-8" cx="4.74" cy="5.27" r="0.02"/><path class="cls-8" d="M4.72,4.85l0,0,0,0a0,0,0,0,1,0,0A0,0,0,0,1,4.76,4.85Z"/><path class="cls-8" d="M4.72,4.42l0,0,0,0s0,0,0,0S4.72,4.44,4.72,4.42Z"/><path class="cls-8" d="M4.72,4s0,0,0,0l0,0,0,0Z"/><path class="cls-8" d="M4.71,3.57l0,0s0,0,0,0a0,0,0,0,1,0,0A0,0,0,0,1,4.71,3.57Z"/><circle class="cls-8" cx="4.74" cy="3.15" r="0.03"/><path class="cls-8" d="M4.71,2.72a0,0,0,1,1,.06,0,0,0,0,0,1-.06,0Z"/><path class="cls-8" d="M4.71,2.3a0,0,0,0,1,.06,0,0,0,0,0,1-.06,0A0,0,0,0,1,4.71,2.3Z"/><path class="cls-8" d="M4.71,1.87a0,0,0,0,1,0,0s0,0,0,0a0,0,0,0,1,0,0S4.71,1.89,4.71,1.87Z"/><circle class="cls-8" cx="4.74" cy="1.45" r="0.04"/><path class="cls-8" d="M4.7,1a0,0,0,1,1,.08,0A0,0,0,1,1,4.7,1Z"/><path class="cls-8" d="M4.7.6a0,0,0,0,1,0,0,0,0,0,0,1,0,0,0,0,0,0,1,0,0A0,0,0,0,1,4.7.6Z"/><path class="cls-8" d="M4.69.17a.05.05,0,0,1,.1,0,0,0,0,0,1-.1,0Z"/><path class="cls-8" d="M4.3,7.61s0,0,0,0a0,0,0,0,1,0,0l0,0S4.3,7.62,4.3,7.61Z"/><circle class="cls-8" cx="4.32" cy="7.19" r="0.02"/><circle class="cls-8" cx="4.32" cy="6.76" r="0.02"/><path class="cls-8" d="M4.29,6.34a0,0,0,0,1,0,0s0,0,0,0a0,0,0,0,1,0,0S4.29,6.35,4.29,6.34Z"/><path class="cls-8" d="M4.29,5.91s0,0,0,0a0,0,0,0,1,0,0l0,0S4.29,5.92,4.29,5.91Z"/><path class="cls-8" d="M4.29,5.49a0,0,0,0,1,0,0s0,0,0,0l0,0S4.29,5.5,4.29,5.49Z"/><path class="cls-8" d="M4.29,5.06s0,0,0,0l0,0s0,0,0,0A0,0,0,0,1,4.29,5.06Z"/><path class="cls-8" d="M4.29,4.64a0,0,0,0,1,0,0s0,0,0,0a0,0,0,0,1,0,0S4.29,4.65,4.29,4.64Z"/><circle class="cls-8" cx="4.32" cy="4.21" r="0.03"/><circle class="cls-8" cx="4.32" cy="3.79" r="0.03"/><path class="cls-8" d="M4.29,3.36a0,0,0,0,1,0,0,0,0,0,0,1,0,.06A0,0,0,0,1,4.29,3.36Z"/><path class="cls-8" d="M4.28,2.94a0,0,0,0,1,0,0,0,0,0,0,1,0,.07A0,0,0,0,1,4.32,2.9Z"/><circle class="cls-8" cx="4.32" cy="2.51" r="0.03"/><circle class="cls-8" cx="4.32" cy="2.09" r="0.04"/><path class="cls-8" d="M4.28,1.66a0,0,0,0,1,0,0s0,0,0,0,0,0,0,0A0,0,0,0,1,4.28,1.66Z"/><path class="cls-8" d="M4.27,1.24s0,0,.05,0a0,0,0,0,1,0,0,0,0,0,0,1,0,0A0,0,0,0,1,4.27,1.24Z"/><circle class="cls-8" cx="4.32" cy="0.81" r="0.04"/><circle class="cls-8" cx="4.32" cy="0.39" r="0.05"/><path class="cls-8" d="M3.87,7.82a0,0,0,0,1,0,0,0,0,0,0,1,0,0s0,0,0,0S3.87,7.84,3.87,7.82Z"/><path class="cls-8" d="M3.87,7.4s0,0,0,0,0,0,0,0l0,0Z"/><path class="cls-8" d="M3.87,7l0,0,0,0s0,0,0,0S3.87,7,3.87,7Z"/><path class="cls-8" d="M3.87,6.55l0,0,0,0,0,0A0,0,0,0,1,3.87,6.55Z"/><path class="cls-8" d="M3.87,6.12a0,0,0,0,1,0,0l0,0a0,0,0,0,1,0,0S3.87,6.14,3.87,6.12Z"/><path class="cls-8" d="M3.87,5.7s0,0,0,0a0,0,0,0,1,0,0s0,0,0,0Z"/><path class="cls-8" d="M3.86,5.27l0,0s0,0,0,0a0,0,0,0,1,0,0A0,0,0,0,1,3.86,5.27Z"/><path class="cls-8" d="M3.86,4.85a0,0,0,0,1,0,0,0,0,0,0,1,0,0,0,0,0,0,1,0,0A0,0,0,0,1,3.86,4.85Z"/><path class="cls-8" d="M3.86,4.42a0,0,0,0,1,.06,0,0,0,0,0,1-.06,0Z"/><path class="cls-8" d="M3.86,4a0,0,0,0,1,.06,0,0,0,0,0,1-.06,0A0,0,0,0,1,3.86,4Z"/><circle class="cls-8" cx="3.89" cy="3.57" r="0.03"/><circle class="cls-8" cx="3.89" cy="3.15" r="0.03"/><path class="cls-8" d="M3.86,2.72a0,0,0,0,1,0,0s0,0,0,0a0,0,0,0,1,0,0S3.86,2.74,3.86,2.72Z"/><path class="cls-8" d="M3.85,2.3a0,0,0,0,1,.08,0,0,0,0,0,1-.08,0A0,0,0,0,1,3.85,2.3Z"/><path class="cls-8" d="M3.85,1.87a0,0,0,1,1,.08,0,0,0,0,1,1-.08,0Z"/><circle class="cls-8" cx="3.89" cy="1.45" r="0.04"/><path class="cls-8" d="M3.85,1a0,0,0,0,1,0,0,0,0,0,0,1,0,0,0,0,0,0,1,0,.05A0,0,0,0,1,3.85,1Z"/><path class="cls-8" d="M3.84.6a0,0,0,1,1,.05.05A0,0,0,0,1,3.84.6Z"/><path class="cls-8" d="M3.84.17a.05.05,0,1,1,.1,0,.05.05,0,1,1-.1,0Z"/><path class="cls-8" d="M3.44,7.61s0,0,0,0a0,0,0,0,1,0,0s0,0,0,0A0,0,0,0,1,3.44,7.61Z"/><circle class="cls-8" cx="3.47" cy="7.19" r="0.03"/><path class="cls-8" d="M3.44,6.76a0,0,0,0,1,0,0s0,0,0,0,0,0,0,0A0,0,0,0,1,3.44,6.76Z"/><path class="cls-8" d="M3.44,6.34a0,0,0,0,1,0,0s0,0,0,0l0,0S3.44,6.35,3.44,6.34Z"/><path class="cls-8" d="M3.44,5.91a0,0,0,0,1,0,0s0,0,0,0,0,0,0,0A0,0,0,0,1,3.44,5.91Z"/><path class="cls-8" d="M3.44,5.49a0,0,0,0,1,0,0,0,0,0,0,1,0,0l0,0A0,0,0,0,1,3.44,5.49Z"/><path class="cls-8" d="M3.44,5.06a0,0,0,0,1,0,0l0,0a0,0,0,0,1,0,0A0,0,0,0,1,3.44,5.06Z"/><path class="cls-8" d="M3.43,4.64a0,0,0,0,1,0,0,0,0,0,0,1,0,.07A0,0,0,0,1,3.47,4.6Z"/><path class="cls-8" d="M3.43,4.21s0,0,0,0a0,0,0,1,1,0,.06S3.43,4.23,3.43,4.21Z"/><path class="cls-8" d="M3.43,3.79a0,0,0,0,1,0,0s0,0,0,0a0,0,0,0,1,0,0S3.43,3.81,3.43,3.79Z"/><path class="cls-8" d="M3.43,3.36s0,0,0,0a0,0,0,0,1,0,0s0,0,0,0A0,0,0,0,1,3.43,3.36Z"/><path class="cls-8" d="M3.43,2.94a0,0,0,0,1,0,0s0,0,0,0a0,0,0,0,1,0,0S3.43,3,3.43,2.94Z"/><path class="cls-8" d="M3.43,2.51a0,0,0,0,1,0,0,0,0,0,0,1,0,.08A0,0,0,0,1,3.43,2.51Z"/><path class="cls-8" d="M3.42,2.09s0,0,.05,0a0,0,0,0,1,0,0,0,0,0,0,1,0,0A0,0,0,0,1,3.42,2.09Z"/><path class="cls-8" d="M3.42,1.66a0,0,0,0,1,.05,0,0,0,0,0,1,0,0,0,0,0,0,1,0,.05A0,0,0,0,1,3.42,1.66Z"/><path class="cls-8" d="M3.42,1.24a0,0,0,0,1,.05-.05,0,0,0,0,1,0,.05,0,0,0,0,1,0,0A0,0,0,0,1,3.42,1.24Z"/><path class="cls-8" d="M3.42.81A0,0,0,0,1,3.47.76a0,0,0,0,1,0,.1A0,0,0,0,1,3.42.81Z"/><path class="cls-8" d="M3.41.39A.06.06,0,0,1,3.47.33a.06.06,0,0,1,0,.06,0,0,0,0,1,0,0A.06.06,0,0,1,3.41.39Z"/><path class="cls-8" d="M3,7.82s0,0,0,0,0,0,0,0a0,0,0,0,1,0,0A0,0,0,0,1,3,7.82Z"/><path class="cls-8" d="M3,7.4a0,0,0,0,1,0,0,0,0,0,0,1,0,0,0,0,0,0,1,0,0Z"/><path class="cls-8" d="M3,7,3,7s0,0,0,0A0,0,0,0,1,3,7,0,0,0,0,1,3,7Z"/><path class="cls-8" d="M3,6.55a0,0,0,1,1,.06,0,0,0,0,0,1-.06,0Z"/><path class="cls-8" d="M3,6.12a0,0,0,1,1,.06,0,0,0,0,0,1-.06,0Z"/><path class="cls-8" d="M3,5.7a0,0,0,0,1,.06,0A0,0,0,0,1,3,5.7,0,0,0,0,1,3,5.7Z"/><path class="cls-8" d="M3,5.27a0,0,0,0,1,.06,0s0,0,0,0S3,5.29,3,5.27Z"/><circle class="cls-8" cx="3.04" cy="4.85" r="0.03"/><path class="cls-8" d="M3,4.42a0,0,0,0,1,0,0,0,0,0,0,1,0,0,0,0,0,0,1,0,0S3,4.44,3,4.42Z"/><path class="cls-8" d="M3,4a0,0,0,0,1,.08,0A0,0,0,0,1,3,4,0,0,0,0,1,3,4Z"/><circle class="cls-8" cx="3.04" cy="3.57" r="0.04"/><path class="cls-8" d="M3,3.15a0,0,0,1,1,.08,0,0,0,0,0,1-.08,0A0,0,0,0,1,3,3.15Z"/><path class="cls-8" d="M3,2.72a0,0,0,1,1,.08,0,0,0,0,1,1-.08,0Z"/><path class="cls-8" d="M3,2.3a0,0,0,0,1,0,0,0,0,0,0,1,0,.08A0,0,0,0,1,3,2.3Z"/><path class="cls-8" d="M3,1.87a0,0,0,0,1,0,0,0,0,0,0,1,0,0,0,0,0,0,1,0,0A0,0,0,0,1,3,1.87Z"/><circle class="cls-8" cx="3.04" cy="1.45" r="0.05"/><path class="cls-8" d="M3,1a0,0,0,1,1,.1,0A.05.05,0,1,1,3,1Z"/><path class="cls-8" d="M3,.6a0,0,0,0,1,0,0A.06.06,0,0,1,3.1.6.06.06,0,0,1,3,.65,0,0,0,0,1,3,.6Z"/><path class="cls-8" d="M3,.17a.06.06,0,0,1,.12,0A.06.06,0,0,1,3,.17Z"/><circle class="cls-8" cx="2.62" cy="7.61" r="0.03"/><circle class="cls-8" cx="2.62" cy="7.19" r="0.03"/><path class="cls-8" d="M2.58,6.76s0,0,0,0a0,0,0,1,1,0,.06S2.58,6.78,2.58,6.76Z"/><path class="cls-8" d="M2.58,6.34a0,0,0,0,1,0,0,0,0,0,0,1,0,0l0,0A0,0,0,0,1,2.58,6.34Z"/><circle class="cls-8" cx="2.62" cy="5.91" r="0.03"/><path class="cls-8" d="M2.58,5.49a0,0,0,0,1,0,0s0,0,0,0a0,0,0,0,1,0,0S2.58,5.51,2.58,5.49Z"/><path class="cls-8" d="M2.58,5.06s0,0,0,0a0,0,0,0,1,0,0s0,0,0,0A0,0,0,0,1,2.58,5.06Z"/><path class="cls-8" d="M2.58,4.64a0,0,0,0,1,0,0s0,0,0,0a0,0,0,0,1,0,0S2.58,4.66,2.58,4.64Z"/><circle class="cls-8" cx="2.62" cy="4.21" r="0.04"/><path class="cls-8" d="M2.58,3.79s0,0,0,0a0,0,0,0,1,0,0,0,0,0,0,1,0,0A0,0,0,0,1,2.58,3.79Z"/><path class="cls-8" d="M2.58,3.36a0,0,0,0,1,0,0,0,0,0,0,1,0,.08A0,0,0,0,1,2.58,3.36Z"/><path class="cls-8" d="M2.57,2.94a0,0,0,0,1,.05,0,0,0,0,0,1,0,0,0,0,0,0,1,0,0A0,0,0,0,1,2.57,2.94Z"/><path class="cls-8" d="M2.57,2.51a0,0,0,0,1,.05,0,0,0,0,0,1,0,0,0,0,0,0,1,0,.05A0,0,0,0,1,2.57,2.51Z"/><circle class="cls-8" cx="2.62" cy="2.09" r="0.05"/><path class="cls-8" d="M2.57,1.66a0,0,0,0,1,.05,0,.05.05,0,0,1,0,.1A0,0,0,0,1,2.57,1.66Z"/><path class="cls-8" d="M2.56,1.24a.06.06,0,0,1,.06-.06.06.06,0,0,1,0,.06,0,0,0,0,1,0,.05A.06.06,0,0,1,2.56,1.24Z"/><path class="cls-8" d="M2.56.81A.06.06,0,0,1,2.62.76a0,0,0,0,1,0,.05.06.06,0,0,1,0,.06A.06.06,0,0,1,2.56.81Z"/><circle class="cls-8" cx="2.62" cy="0.39" r="0.06"/><circle class="cls-8" cx="2.19" cy="7.82" r="0.03"/><path class="cls-8" d="M2.16,7.4a0,0,0,1,1,.06,0,0,0,0,0,1-.06,0A0,0,0,0,1,2.16,7.4Z"/><path class="cls-8" d="M2.16,7a0,0,0,0,1,0,0s0,0,0,0a0,0,0,0,1,0,0S2.16,7,2.16,7Z"/><path class="cls-8" d="M2.16,6.55s0,0,0,0a0,0,0,0,1,0,0s0,0,0,0A0,0,0,0,1,2.16,6.55Z"/><path class="cls-8" d="M2.15,6.12s0,0,0,0,0,0,0,0a0,0,0,1,1-.08,0Z"/><path class="cls-8" d="M2.15,5.7a0,0,0,1,1,.08,0,0,0,0,0,1-.08,0A0,0,0,0,1,2.15,5.7Z"/><path class="cls-8" d="M2.15,5.27s0,0,0,0,0,0,0,0a0,0,0,0,1-.08,0Z"/><path class="cls-8" d="M2.15,4.85a0,0,0,0,1,.08,0,0,0,0,0,1-.08,0A0,0,0,0,1,2.15,4.85Z"/><path class="cls-8" d="M2.15,4.42a0,0,0,0,1,.08,0,0,0,0,0,1-.08,0Z"/><path class="cls-8" d="M2.15,4a0,0,0,0,1,.08,0,0,0,0,0,1-.08,0A0,0,0,0,1,2.15,4Z"/><path class="cls-8" d="M2.15,3.57a0,0,0,0,1,0,0,0,0,0,0,1,.05,0,0,0,0,0,1-.05.05A0,0,0,0,1,2.15,3.57Z"/><path class="cls-8" d="M2.15,3.15a0,0,0,0,1,0,0,0,0,0,0,1,.05,0,.05.05,0,0,1-.05.05S2.15,3.17,2.15,3.15Z"/><path class="cls-8" d="M2.14,2.72s0,0,0,0a0,0,0,0,1,.05,0,0,0,0,0,1-.05,0A.05.05,0,0,1,2.14,2.72Z"/><path class="cls-8" d="M2.14,2.3a.05.05,0,1,1,0,.05A0,0,0,0,1,2.14,2.3Z"/><path class="cls-8" d="M2.14,1.87a0,0,0,0,1,.1,0,.05.05,0,1,1-.1,0Z"/><path class="cls-8" d="M2.14,1.45a0,0,0,0,1,0-.05.05.05,0,1,1,0,.1A0,0,0,0,1,2.14,1.45Z"/><path class="cls-8" d="M2.13,1a.06.06,0,0,1,.12,0,.06.06,0,0,1-.12,0Z"/><path class="cls-8" d="M2.13.6a.06.06,0,1,1,.12,0,.06.06,0,1,1-.12,0Z"/><path class="cls-8" d="M2.13.17A.06.06,0,0,1,2.19.11a.06.06,0,0,1,.06.06s0,.07-.06.07A.07.07,0,0,1,2.13.17Z"/><circle class="cls-8" cx="1.77" cy="7.61" r="0.04"/><circle class="cls-8" cx="1.77" cy="7.19" r="0.04"/><circle class="cls-8" cx="1.77" cy="6.76" r="0.04"/><path class="cls-8" d="M1.73,6.34a0,0,0,0,1,0,0s0,0,0,0a0,0,0,0,1,0,0S1.73,6.36,1.73,6.34Z"/><path class="cls-8" d="M1.73,5.91a0,0,0,0,1,.08,0,0,0,0,0,1-.08,0A0,0,0,0,1,1.73,5.91Z"/><path class="cls-8" d="M1.73,5.49s0,0,0,0a0,0,0,0,1,0,0,0,0,0,0,1,0,0A0,0,0,0,1,1.73,5.49Z"/><path class="cls-8" d="M1.73,5.06a0,0,0,0,1,0,0,0,0,0,0,1,0,.08A0,0,0,0,1,1.73,5.06Z"/><path class="cls-8" d="M1.72,4.64a0,0,0,0,1,.05,0,0,0,0,0,1,0,0,0,0,0,0,1,0,0A0,0,0,0,1,1.72,4.64Z"/><path class="cls-8" d="M1.72,4.21a0,0,0,0,1,.05,0,0,0,0,0,1,0,0,0,0,0,0,1,0,0A0,0,0,0,1,1.72,4.21Z"/><path class="cls-8" d="M1.72,3.79a0,0,0,0,1,.05,0,0,0,0,0,1,0,0,0,0,0,0,1,0,0A0,0,0,0,1,1.72,3.79Z"/><path class="cls-8" d="M1.72,3.36a.05.05,0,0,1,.05,0s0,0,0,0a0,0,0,0,1,0,.05A0,0,0,0,1,1.72,3.36Z"/><path class="cls-8" d="M1.72,2.94a0,0,0,0,1,.05,0,.05.05,0,0,1,.05,0A.06.06,0,0,1,1.77,3,.05.05,0,0,1,1.72,2.94Z"/><path class="cls-8" d="M1.71,2.51a.06.06,0,0,1,.06,0,.05.05,0,0,1,0,.1A.06.06,0,0,1,1.71,2.51Z"/><path class="cls-8" d="M1.71,2.09A.06.06,0,0,1,1.77,2a.06.06,0,0,1,.05.06,0,0,0,0,1-.05.05A.06.06,0,0,1,1.71,2.09Z"/><path class="cls-8" d="M1.71,1.66a.06.06,0,0,1,.06,0,0,0,0,0,1,.05,0,.06.06,0,0,1-.05.06A.06.06,0,0,1,1.71,1.66Z"/><path class="cls-8" d="M1.71,1.24a.06.06,0,0,1,.06-.06.06.06,0,0,1,.05.06,0,0,0,0,1-.05.05S1.71,1.27,1.71,1.24Z"/><path class="cls-8" d="M1.71.81A.06.06,0,0,1,1.77.75a.06.06,0,0,1,.06.06.06.06,0,0,1-.06.06A.05.05,0,0,1,1.71.81Z"/><path class="cls-8" d="M1.7.39A.07.07,0,0,1,1.77.32a.07.07,0,0,1,.06.07.06.06,0,0,1-.06.06A.07.07,0,0,1,1.7.39Z"/><path class="cls-8" d="M1.3,7.82s0,0,0,0,0,0,0,0a0,0,0,0,1-.08,0Z"/><path class="cls-8" d="M1.3,7.4a0,0,0,0,1,.08,0,0,0,0,0,1-.08,0A0,0,0,0,1,1.3,7.4Z"/><path class="cls-8" d="M1.3,7a0,0,0,1,1,.08,0A0,0,0,1,1,1.3,7Z"/><path class="cls-8" d="M1.3,6.55a0,0,0,1,1,.08,0,0,0,0,0,1-.08,0A0,0,0,0,1,1.3,6.55Z"/><circle class="cls-8" cx="1.34" cy="6.12" r="0.04"/><circle class="cls-8" cx="1.34" cy="5.7" r="0.04"/><circle class="cls-8" cx="1.34" cy="5.27" r="0.04"/><path class="cls-8" d="M1.3,4.85a0,0,0,0,1,0,0,0,0,0,0,1,0,0,0,0,0,0,1,0,0A0,0,0,0,1,1.3,4.85Z"/><path class="cls-8" d="M1.29,4.42s0,0,.05,0a0,0,0,0,1,0,0,0,0,0,0,1,0,0A.05.05,0,0,1,1.29,4.42Z"/><circle class="cls-8" cx="1.34" cy="4" r="0.05"/><circle class="cls-8" cx="1.34" cy="3.57" r="0.05"/><path class="cls-8" d="M1.29,3.15a0,0,0,1,1,.05.05A0,0,0,0,1,1.29,3.15Z"/><path class="cls-8" d="M1.29,2.72a0,0,0,0,1,.1,0,.05.05,0,1,1-.1,0Z"/><path class="cls-8" d="M1.29,2.3a.06.06,0,0,1,.05-.06.06.06,0,0,1,.06.06.06.06,0,0,1-.06.05A0,0,0,0,1,1.29,2.3Z"/><path class="cls-8" d="M1.28,1.87a.06.06,0,0,1,.12,0,.06.06,0,0,1-.12,0Z"/><path class="cls-8" d="M1.28,1.45a.06.06,0,1,1,.06.06A.06.06,0,0,1,1.28,1.45Z"/><path class="cls-8" d="M1.28,1A.06.06,0,0,1,1.34,1,.06.06,0,0,1,1.4,1s0,.07-.06.07A.07.07,0,0,1,1.28,1Z"/><path class="cls-8" d="M1.28.6A.07.07,0,0,1,1.34.53.07.07,0,0,1,1.41.6s0,.06-.07.06A.06.06,0,0,1,1.28.6Z"/><path class="cls-8" d="M1.27.17a.07.07,0,0,1,.14,0,.07.07,0,1,1-.14,0Z"/><path class="cls-8" d="M.88,8s0,0,0,0A0,0,0,0,1,1,8a0,0,0,0,1,0,0A0,0,0,0,1,.88,8Z"/><path class="cls-8" d="M.88,7.61a0,0,0,0,1,0,0,0,0,0,0,1,0,.08A0,0,0,0,1,.88,7.61Z"/><circle class="cls-8" cx="0.92" cy="7.19" r="0.04"/><circle class="cls-8" cx="0.92" cy="6.76" r="0.04"/><path class="cls-8" d="M.87,6.34a0,0,0,0,1,.05,0,0,0,0,0,1,0,0,0,0,0,0,1,0,0A0,0,0,0,1,.87,6.34Z"/><path class="cls-8" d="M.87,5.91a0,0,0,0,1,.05,0,0,0,0,0,1,0,0,0,0,0,0,1,0,0A0,0,0,0,1,.87,5.91Z"/><path class="cls-8" d="M.87,5.49a0,0,0,0,1,.05,0,0,0,0,0,1,0,0,0,0,0,0,1,0,0A0,0,0,0,1,.87,5.49Z"/><path class="cls-8" d="M.87,5.06A.05.05,0,0,1,.92,5s0,0,0,0a0,0,0,0,1,0,.05A0,0,0,0,1,.87,5.06Z"/><path class="cls-8" d="M.87,4.64a0,0,0,0,1,.05,0,.05.05,0,0,1,0,0,.06.06,0,0,1,0,.05A.05.05,0,0,1,.87,4.64Z"/><path class="cls-8" d="M.87,4.21a0,0,0,0,1,.05,0,0,0,0,1,1,0,.1A0,0,0,0,1,.87,4.21Z"/><path class="cls-8" d="M.86,3.79a.06.06,0,0,1,.06-.06.06.06,0,0,1,0,.06,0,0,0,0,1,0,0A.06.06,0,0,1,.86,3.79Z"/><path class="cls-8" d="M.86,3.36a.06.06,0,0,1,.06,0,0,0,0,0,1,0,.1A.06.06,0,0,1,.86,3.36Z"/><path class="cls-8" d="M.86,2.94a.06.06,0,0,1,.06-.06.06.06,0,0,1,0,.06A0,0,0,0,1,.92,3,.06.06,0,0,1,.86,2.94Z"/><path class="cls-8" d="M.86,2.51a.06.06,0,0,1,.06,0,0,0,0,0,1,0,0,.06.06,0,0,1,0,.06A.06.06,0,0,1,.86,2.51Z"/><circle class="cls-8" cx="0.92" cy="2.09" r="0.06"/><path class="cls-8" d="M.86,1.66A.06.06,0,0,1,.92,1.6.06.06,0,0,1,1,1.66a.06.06,0,0,1-.06.06A.05.05,0,0,1,.86,1.66Z"/><path class="cls-8" d="M.85,1.24a.07.07,0,0,1,.07-.07A.07.07,0,0,1,1,1.24a.06.06,0,0,1-.06.06A.07.07,0,0,1,.85,1.24Z"/><circle class="cls-8" cx="0.92" cy="0.81" r="0.07"/><path class="cls-8" d="M.85.39A.07.07,0,0,1,.92.32.07.07,0,0,1,1,.39S1,.46.92.46A.08.08,0,0,1,.85.39Z"/><path class="cls-8" d="M.45,7.82a0,0,0,0,1,0,0,0,0,0,0,1,.05,0,0,0,0,0,1-.05,0A0,0,0,0,1,.45,7.82Z"/><path class="cls-8" d="M.45,7.4a0,0,0,0,1,0-.05,0,0,0,0,1,.05.05,0,0,0,0,1-.05,0A0,0,0,0,1,.45,7.4Z"/><path class="cls-8" d="M.45,7a0,0,0,0,1,0,0A0,0,0,0,1,.54,7,0,0,0,0,1,.49,7,0,0,0,0,1,.45,7Z"/><path class="cls-8" d="M.44,6.55a.05.05,0,0,1,0,0,0,0,0,0,1,.05,0,.05.05,0,0,1-.05,0A.06.06,0,0,1,.44,6.55Z"/><path class="cls-8" d="M.44,6.12s0,0,0,0a0,0,0,0,1,.05,0,0,0,0,0,1-.05,0A.05.05,0,0,1,.44,6.12Z"/><path class="cls-8" d="M.44,5.7a.05.05,0,0,1,0,0,0,0,0,1,1,0,.1A.05.05,0,0,1,.44,5.7Z"/><path class="cls-8" d="M.44,5.27a.05.05,0,0,1,0,0,.05.05,0,0,1,.05,0,0,0,0,0,1-.05.05A0,0,0,0,1,.44,5.27Z"/><circle class="cls-8" cx="0.49" cy="4.85" r="0.05"/><circle class="cls-8" cx="0.49" cy="4.42" r="0.05"/><path class="cls-8" d="M.44,4a.06.06,0,0,1,0-.06A.06.06,0,0,1,.55,4a.06.06,0,0,1-.06,0A0,0,0,0,1,.44,4Z"/><path class="cls-8" d="M.44,3.57a0,0,0,0,1,0,0,.06.06,0,0,1,.06,0,.06.06,0,0,1-.06.06A.06.06,0,0,1,.44,3.57Z"/><path class="cls-8" d="M.43,3.15a.06.06,0,0,1,.06-.06.06.06,0,1,1,0,.12A.06.06,0,0,1,.43,3.15Z"/><circle class="cls-8" cx="0.49" cy="2.72" r="0.06"/><path class="cls-8" d="M.43,2.3a.06.06,0,0,1,.06-.06.06.06,0,1,1,0,.12A.06.06,0,0,1,.43,2.3Z"/><path class="cls-8" d="M.43,1.87a.06.06,0,0,1,.06-.06.07.07,0,0,1,.07.06.07.07,0,0,1-.07.07A.07.07,0,0,1,.43,1.87Z"/><circle class="cls-8" cx="0.49" cy="1.45" r="0.07"/><circle class="cls-8" cx="0.49" cy="1.02" r="0.07"/><path class="cls-8" d="M.42.6A.07.07,0,1,1,.49.67.07.07,0,0,1,.42.6Z"/><circle class="cls-8" cx="0.49" cy="0.17" r="0.07"/><path class="cls-8" d="M0,8A0,0,0,0,1,.07,8a0,0,0,0,1,0,0,0,0,0,0,1,0,0A0,0,0,0,1,0,8Z"/><path class="cls-8" d="M0,7.61a0,0,0,0,1,.05-.05.05.05,0,0,1,0,.1A0,0,0,0,1,0,7.61Z"/><circle class="cls-8" cx="0.07" cy="7.19" r="0.05"/><circle class="cls-8" cx="0.07" cy="6.76" r="0.05"/><path class="cls-8" d="M0,6.34a0,0,0,0,1,.05,0,.05.05,0,0,1,0,0,.06.06,0,0,1,0,0A.05.05,0,0,1,0,6.34Z"/><path class="cls-8" d="M0,5.91a.06.06,0,0,1,.06,0,0,0,0,1,1,0,.1A.06.06,0,0,1,0,5.91Z"/><path class="cls-8" d="M0,5.49a.06.06,0,0,1,.06-.06.06.06,0,0,1,0,.06.05.05,0,0,1,0,0A.06.06,0,0,1,0,5.49Z"/><path class="cls-8" d="M0,5.06A.06.06,0,0,1,.07,5a0,0,0,0,1,0,0,.06.06,0,0,1,0,.06A.06.06,0,0,1,0,5.06Z"/><path class="cls-8" d="M0,4.64a.06.06,0,0,1,.06-.06.06.06,0,0,1,0,.06,0,0,0,0,1,0,.05A.06.06,0,0,1,0,4.64Z"/><path class="cls-8" d="M0,4.21a.06.06,0,0,1,.06-.06.06.06,0,0,1,0,.12A.06.06,0,0,1,0,4.21Z"/><path class="cls-8" d="M0,3.79a.05.05,0,0,1,.06-.06s0,0,0,.06a0,0,0,0,1,0,0S0,3.82,0,3.79Z"/><path class="cls-8" d="M0,3.36A.06.06,0,0,1,.07,3.3a.06.06,0,1,1,0,.12A.06.06,0,0,1,0,3.36Z"/><path class="cls-8" d="M0,2.94a.05.05,0,0,1,.06-.06.06.06,0,0,1,.06.06A.06.06,0,0,1,.07,3,.06.06,0,0,1,0,2.94Z"/><path class="cls-8" d="M0,2.51a.07.07,0,0,1,.07-.06.06.06,0,0,1,.06.06.06.06,0,0,1-.06.06S0,2.55,0,2.51Z"/><path class="cls-8" d="M0,2.09A.07.07,0,0,1,.07,2a.07.07,0,0,1,.06.07.06.06,0,0,1-.06.06A.07.07,0,0,1,0,2.09Z"/><path class="cls-8" d="M0,1.66a.07.07,0,0,1,.07-.07.07.07,0,1,1,0,.14A.07.07,0,0,1,0,1.66Z"/><circle class="cls-8" cx="0.07" cy="1.24" r="0.07"/><circle class="cls-8" cx="0.07" cy="0.81" r="0.07"/><path class="cls-8" d="M0,.39A.09.09,0,0,1,.07.31.08.08,0,0,1,.14.39.07.07,0,0,1,.07.46.08.08,0,0,1,0,.39Z"/></g></g></g></g></g></g></g></svg>