<?xml version="1.0" encoding="UTF-8"?>
<svg enable-background="new 0 0 467.4 86.7" version="1.1" viewBox="0 0 467.4 86.7" xml:space="preserve" xmlns="http://www.w3.org/2000/svg">
<style type="text/css">
	.st0{opacity:0.65;fill:#10B2AE;}
	.st1{fill:#008D85;}
	.st2{fill:none;stroke:#000000;stroke-width:12;stroke-miterlimit:10;}
	.st3{fill:#FDFEFF;}
	.st4{fill:none;stroke:#F58643;stroke-width:8;stroke-miterlimit:10;}
	.st5{fill:#F58643;}
	.st6{fill:#029086;stroke:#019086;stroke-width:4;stroke-miterlimit:10;}
	.st7{fill:#F58642;stroke:#F58642;stroke-width:4;stroke-miterlimit:10;}
</style>
	<ellipse class="st0" cx="32.4" cy="81.3" rx="20.5" ry="5.4"/>
	<path class="st1" d="m64.9 32.4c0-17.9-14.6-32.4-32.5-32.4s-32.4 14.5-32.4 32.4 32.4 48.8 32.4 48.8 32.5-30.9 32.5-48.8"/>
		<path class="st2" d="m20.8 20.3"/>
		<path class="st2" d="m49.9 75.6"/>
		<path class="st2" d="m69.6 9.7"/>
		<path class="st2" d="m55.2 70.1"/>
		<path class="st2" d="m15.6 25.3"/>
	<path class="st3" d="m32.4 13.5c-10.1 0-18.3 8.2-18.3 18.3 0 5.8 2.7 11 6.9 14.3 2.7-3.3 6.8-5.3 11.4-5.3s8.7 2.1 11.4 5.3c4.2-3.4 6.9-8.5 6.9-14.3 0-10.1-8.2-18.3-18.3-18.3zm0 23.2c-3.8 0-6.9-3.1-6.9-6.9s3.1-6.9 6.9-6.9 6.9 3.1 6.9 6.9-3.1 6.9-6.9 6.9z"/>
	<polyline class="st4" points="2.7 75.6 33 49.5 41.3 59.7 71.6 31.1"/>
	<polygon class="st5" points="76.9 37 77.2 25.7 65.9 25.4"/>
	<path class="st6" d="m101.9 26.2c3 0 5.5 0.5 7.6 1.6s3.9 2.5 5.3 4.4c1.4 1.8 2.4 4 3.1 6.5s1 5.2 1 8c0 2.9-0.3 5.6-1 8.1s-1.7 4.7-3.1 6.5c-1.4 1.9-3.1 3.3-5.2 4.4s-4.6 1.6-7.5 1.6h-11.2c-1.2 0-1.9-0.2-2.2-0.5-0.2-0.3-0.4-0.9-0.4-1.8v-36.4c0-0.9 0.1-1.5 0.4-1.8 0.2-0.3 1-0.5 2.2-0.5h11zm-8.8 37.1h9.1c3.8 0 6.8-1.4 8.9-4.3s3.2-7 3.2-12.4c0-5.2-1.1-9.3-3.3-12.1s-5.6-4.2-10.3-4.2h-7.6v33z"/>
	<path class="st6" d="m138.4 68.5c-2.3 0-4.3-0.4-6.1-1.3-1.7-0.9-3.2-2.1-4.3-3.6s-2-3.2-2.6-5.3c-0.6-2-0.8-4.1-0.8-6.4 0-2.2 0.3-4.4 0.9-6.4s1.4-3.8 2.6-5.4c1.1-1.6 2.6-2.8 4.3-3.7s3.7-1.4 6-1.4c2.2 0 4 0.4 5.6 1.2s2.8 1.9 3.8 3.2 1.7 2.9 2.2 4.6 0.7 3.6 0.7 5.5c0 1.5-0.2 2.5-0.6 3.1s-1.1 0.9-2.1 0.9h-18.7c0 1.3 0.1 2.6 0.5 3.8 0.4 1.3 1 2.4 1.8 3.5 0.8 1 1.7 1.9 2.9 2.6s2.5 1 4 1c2 0 3.6-0.3 5-0.8 1.3-0.5 2.5-1.4 3.5-2.5 0.4-0.4 0.8-0.7 1.1-0.8 0.4-0.1 0.7-0.1 1 0s0.5 0.2 0.7 0.4 0.3 0.4 0.4 0.6c0.3 0.5 0.2 1.1-0.1 1.9-0.4 0.8-1.1 1.6-2.1 2.4s-2.3 1.4-3.9 2c-1.7 0.6-3.6 0.9-5.7 0.9zm7.9-18.4c0-1.3-0.1-2.6-0.3-3.9s-0.6-2.5-1.2-3.5c-0.6-1.1-1.4-1.9-2.5-2.6s-2.4-1-4-1c-1.8 0-3.2 0.4-4.4 1.1-1.1 0.8-2.1 1.7-2.7 2.8-0.7 1.1-1.2 2.3-1.4 3.6-0.3 1.3-0.4 2.4-0.4 3.5h16.9z"/>
	<path class="st6" d="m157.2 25.2c0-0.8 0.2-1.4 0.5-1.7 0.3-0.4 0.9-0.5 1.8-0.5s1.5 0.2 1.8 0.6 0.5 1 0.5 1.8v40.6c0 1.4-0.8 2.1-2.3 2.1s-2.3-0.7-2.3-2.1v-40.8z"/>
	<path class="st6" d="m177.6 40.8v15.1 3c0 1 0.1 1.8 0.4 2.6s0.7 1.4 1.3 1.8 1.5 0.7 2.7 0.7c0.9 0 1.7-0.1 2.4-0.4s1.3-0.6 2-0.8c0.7-0.3 1.3-0.5 1.9-0.4 0.5 0.1 0.8 0.4 0.9 1.1 0.1 0.6-0.1 1.2-0.5 1.8-0.5 0.6-1.1 1-1.9 1.4s-1.7 0.7-2.7 1c-1 0.2-2 0.4-3 0.4-1.2 0-2.3-0.1-3.3-0.4s-1.8-0.7-2.5-1.4c-0.7-0.6-1.3-1.5-1.7-2.5s-0.6-2.3-0.6-3.8v-19h-1.9c-0.6 0-1.1-0.1-1.4-0.4-0.3-0.2-0.6-0.6-0.7-1-0.8-0.6-1.1-1.3-0.8-2 0.2-0.6 0.7-1 1.7-1h3.1v-3.5c0-1.2 0.1-2.1 0.3-2.8s0.9-1 2.1-1c1 0 1.6 0.2 1.9 0.6 0.2 0.4 0.4 1 0.4 1.8v4.9h7.4c1.3 0 2.2 0.1 2.8 0.4 0.6 0.2 0.9 0.8 0.9 1.7s-0.3 1.5-0.9 1.8-1.6 0.5-2.9 0.5h-7.4z"/>
	<path class="st6" d="m216.5 61.7c-1 2.1-2.2 3.7-3.8 4.8s-3.6 1.7-6 1.7c-2 0-3.8-0.4-5.4-1.2s-3-1.9-4.2-3.3-2.1-3.1-2.7-5.1-1-4.2-1-6.7c0-3 0.4-5.5 1.1-7.6s1.7-3.9 2.9-5.2c1.2-1.4 2.6-2.3 4.3-3 1.6-0.6 3.4-0.9 5.2-0.9 2.4 0 4.4 0.7 6.1 2.1 1.6 1.4 2.8 3.1 3.6 5.1v-4.4c0-0.6 0.2-1.2 0.6-1.7s1-0.7 1.8-0.7 1.4 0.3 1.7 0.8c0.4 0.5 0.5 1 0.5 1.6v27.4c0 0.6-0.2 1.2-0.5 1.6-0.3 0.5-1 0.7-1.8 0.8-0.9 0-1.5-0.2-1.9-0.7s-0.5-1-0.5-1.7v-3.7zm-18.3-9.8c0 3.8 0.9 6.8 2.6 9s4 3.2 7.1 3.2c1.5 0 2.8-0.3 3.9-0.9s2-1.5 2.7-2.6 1.3-2.4 1.6-3.9c0.4-1.5 0.5-3.1 0.5-4.8s-0.2-3.3-0.6-4.9c-0.4-1.5-1-2.9-1.7-4-0.8-1.1-1.7-2-2.8-2.7s-2.4-1-3.8-1c-1.6 0-3.1 0.3-4.2 0.9-1.2 0.6-2.2 1.4-3 2.6-0.8 1.1-1.4 2.5-1.8 4-0.3 1.5-0.5 3.2-0.5 5.1z"/>
	<path class="st7" d="m233.8 35.7c0 1.1 0.3 2.1 0.8 2.9s1.2 1.5 2 2.1 1.8 1.2 2.9 1.7 2.2 1 3.4 1.6c1.5 0.7 2.9 1.4 4.1 2.1s2.2 1.5 3.1 2.5c0.8 0.9 1.5 2 1.9 3.2s0.7 2.6 0.7 4.2c0 1.8-0.3 3.4-1 4.9-0.6 1.5-1.5 2.8-2.7 3.9s-2.5 2-4.2 2.6-3.4 0.9-5.3 1c-1.5 0-3-0.1-4.5-0.5s-2.8-0.8-3.9-1.4c-1.7-0.9-2.8-1.8-3.4-2.8-0.5-1-0.5-1.8 0-2.5 0.4-0.6 0.9-0.8 1.5-0.8s1.2 0.3 1.9 0.7c1.2 0.8 2.5 1.5 3.9 2.1s3 0.9 4.6 0.9c1 0 2-0.2 3-0.6s1.8-0.9 2.6-1.6 1.4-1.5 1.8-2.5c0.5-1 0.7-2 0.7-3.1s-0.2-2.1-0.7-3c-0.4-0.9-1-1.7-1.7-2.4s-1.5-1.3-2.4-1.8-1.8-0.9-2.7-1.3c-1.6-0.6-3.2-1.3-4.6-2s-2.6-1.5-3.6-2.3c-1-0.9-1.8-1.9-2.4-3.2-0.6-1.2-0.8-2.7-0.8-4.5 0-1.6 0.3-3 1-4.4 0.6-1.3 1.5-2.4 2.6-3.3s2.3-1.6 3.7-2c1.4-0.5 2.8-0.7 4.4-0.7 1.5 0 3 0.2 4.4 0.6s2.7 0.9 3.7 1.6c1 0.6 1.8 1.3 2.2 2.1s0.4 1.6 0 2.3c-0.4 0.6-0.9 0.9-1.6 0.9s-1.4-0.2-2-0.7c-0.8-0.6-1.8-1.1-3-1.7s-2.4-0.8-3.7-0.8c-2 0-3.7 0.6-4.9 1.7-1.2 1-1.8 2.5-1.8 4.3z"/>
	<path class="st7" d="m280.7 61.7c-1 2.1-2.2 3.7-3.8 4.8s-3.6 1.7-6 1.7c-2 0-3.8-0.4-5.4-1.2s-3-1.9-4.2-3.3-2.1-3.1-2.7-5.1-1-4.2-1-6.7c0-3 0.4-5.5 1.1-7.6s1.7-3.9 2.9-5.2c1.2-1.4 2.6-2.3 4.3-3 1.6-0.6 3.4-0.9 5.2-0.9 2.4 0 4.4 0.7 6.1 2.1 1.6 1.4 2.8 3.1 3.6 5.1v-4.4c0-0.6 0.2-1.2 0.6-1.7s1-0.7 1.8-0.7 1.4 0.3 1.7 0.8c0.4 0.5 0.5 1 0.5 1.6v27.4c0 0.6-0.2 1.2-0.5 1.6-0.3 0.5-1 0.7-1.8 0.8-0.9 0-1.5-0.2-1.9-0.7s-0.5-1-0.5-1.7v-3.7zm-18.3-9.8c0 3.8 0.9 6.8 2.6 9s4 3.2 7.1 3.2c1.5 0 2.8-0.3 3.9-0.9s2-1.5 2.7-2.6 1.3-2.4 1.6-3.9c0.4-1.5 0.5-3.1 0.5-4.8s-0.2-3.3-0.6-4.9c-0.4-1.5-1-2.9-1.7-4-0.8-1.1-1.7-2-2.8-2.7s-2.4-1-3.8-1c-1.6 0-3.1 0.3-4.2 0.9-1.2 0.6-2.2 1.4-3 2.6-0.8 1.1-1.4 2.5-1.8 4-0.3 1.5-0.5 3.2-0.5 5.1z"/>
	<path class="st7" d="m293.3 25.2c0-0.8 0.2-1.4 0.5-1.7 0.3-0.4 0.9-0.5 1.8-0.5s1.5 0.2 1.8 0.6 0.5 1 0.5 1.8v40.6c0 1.4-0.8 2.1-2.3 2.1s-2.3-0.7-2.3-2.1v-40.8z"/>
	<path class="st7" d="m318 68.5c-2.3 0-4.3-0.4-6.1-1.3s-3.1-2.1-4.3-3.6c-1.1-1.5-2-3.2-2.5-5.3-0.6-2-0.8-4.1-0.8-6.4 0-2.2 0.3-4.4 0.9-6.4s1.4-3.8 2.6-5.4c1.1-1.6 2.6-2.8 4.3-3.7s3.7-1.4 6-1.4c2.2 0 4 0.4 5.6 1.2s2.8 1.9 3.8 3.2 1.7 2.9 2.2 4.6 0.7 3.6 0.7 5.5c0 1.5-0.2 2.5-0.6 3.1s-1.1 0.9-2.1 0.9h-18.7c0 1.3 0.1 2.6 0.5 3.8 0.4 1.3 1 2.4 1.8 3.5 0.8 1 1.8 1.9 2.9 2.6 1.2 0.7 2.5 1 4 1 2 0 3.6-0.3 4.9-0.8s2.5-1.4 3.5-2.5c0.4-0.4 0.8-0.7 1.1-0.8 0.4-0.1 0.7-0.1 1 0s0.5 0.2 0.7 0.4 0.3 0.4 0.4 0.6c0.3 0.5 0.2 1.1-0.2 1.9s-1.1 1.6-2.1 2.4-2.3 1.4-3.9 2-3.5 0.9-5.6 0.9zm7.9-18.4c0-1.3-0.1-2.6-0.3-3.9s-0.6-2.5-1.2-3.5c-0.6-1.1-1.4-1.9-2.5-2.6s-2.4-1-4.1-1c-1.8 0-3.2 0.4-4.3 1.1-1.1 0.8-2.1 1.7-2.7 2.8-0.7 1.1-1.2 2.3-1.4 3.6-0.3 1.3-0.4 2.4-0.4 3.5h16.9z"/>
	<path class="st7" d="m346.6 64.1c1.9 0 3.5-0.5 4.9-1.5 1.3-1 2-2.3 2-3.8 0-0.7-0.1-1.4-0.3-1.9s-0.6-1-1.2-1.5-1.4-0.9-2.4-1.3-2.4-0.8-4-1.3c-1.7-0.4-3.1-0.9-4.4-1.4-1.2-0.5-2.2-1-3-1.7-0.8-0.6-1.4-1.4-1.8-2.3s-0.6-2-0.6-3.3c0-1.4 0.3-2.6 0.8-3.7 0.6-1.1 1.3-2 2.3-2.8s2.1-1.3 3.4-1.7 2.7-0.6 4.2-0.6c1.6 0 3 0.2 4.3 0.5s2.4 0.8 3.3 1.3 1.6 1.1 2.2 1.6c0.5 0.6 0.8 1.1 0.8 1.6 0 0.6-0.1 1.2-0.4 1.8s-0.7 0.8-1.4 0.8c-0.3 0-0.6-0.1-0.8-0.3-0.3-0.2-0.7-0.5-1.2-1-0.9-0.7-1.8-1.3-2.8-1.7-0.9-0.4-2.2-0.7-3.9-0.7-0.8 0-1.6 0.1-2.3 0.3s-1.4 0.5-2 0.9-1.1 0.9-1.4 1.5c-0.4 0.6-0.5 1.3-0.5 2.1 0 0.7 0.1 1.3 0.4 1.8s0.7 0.9 1.3 1.3 1.4 0.7 2.5 1.1c1 0.3 2.3 0.7 3.9 1.2 1.4 0.4 2.6 0.8 3.8 1.3s2.2 1 3.1 1.7 1.6 1.5 2.1 2.5 0.8 2.2 0.8 3.7-0.3 2.8-1 4-1.6 2.2-2.7 3.1-2.4 1.5-3.8 2-2.8 0.7-4.2 0.7c-1.7 0-3.2-0.2-4.6-0.7-1.4-0.4-2.6-1-3.6-1.6s-1.7-1.3-2.3-1.9c-0.5-0.7-0.8-1.2-0.8-1.7s0.1-1 0.4-1.6 0.7-0.9 1.3-0.8c0.4 0 0.8 0.2 1.3 0.7 0.4 0.5 1 1 1.7 1.5s1.6 1 2.7 1.4c0.9 0.2 2.2 0.4 3.9 0.4z"/>
	<path class="st7" d="m372.2 56.5-2.5 6.9c-0.2 0.6-0.4 1.1-0.6 1.6s-0.4 1-0.7 1.4-0.6 0.8-0.9 1.1-0.7 0.4-1.2 0.4c-0.8 0-1.4-0.3-1.9-0.8-0.4-0.5-0.4-1.4 0-2.8l12.6-36.7c0.2-0.6 0.5-1.1 1-1.5s1.1-0.6 2-0.6c0.8 0 1.5 0.2 2 0.6s0.9 0.9 1.1 1.5l12.7 36.8c0.3 1 0.3 1.8 0.1 2.4-0.3 0.7-0.9 1-2 1-0.7 0-1.2-0.1-1.7-0.6s-0.7-1-0.9-1.6l-3.3-9.2h-15.8zm14.8-4.2-6.8-20.6-6.8 20.6h13.6z"/>
	<path class="st7" d="m408.2 74.4c0 0.6-0.2 1.2-0.5 1.7-0.4 0.5-1 0.7-1.9 0.7s-1.5-0.3-1.8-0.8-0.5-1-0.5-1.6v-36.4c0-0.6 0.2-1.2 0.5-1.6 0.4-0.5 0.9-0.7 1.7-0.8 0.8 0 1.4 0.2 1.8 0.7s0.6 1 0.6 1.7v4.4c0.8-2 2-3.7 3.6-5.1s3.7-2.1 6.1-2.1c1.8 0 3.5 0.3 5.2 0.9 1.6 0.6 3.1 1.6 4.3 3s2.2 3.1 2.9 5.2 1.1 4.7 1.1 7.6c0 2.4-0.3 4.7-1 6.7-0.6 2-1.5 3.7-2.7 5.1s-2.5 2.5-4.2 3.3c-1.6 0.8-3.4 1.2-5.4 1.2-2.4 0-4.5-0.6-6-1.7-1.6-1.1-2.9-2.7-3.8-4.8v12.7zm18.2-22.5c0-1.9-0.2-3.6-0.6-5.2s-1-2.9-1.7-4c-0.8-1.1-1.8-2-3-2.5-1.2-0.6-2.6-0.9-4.2-0.9-1.4 0-2.7 0.3-3.8 1s-2 1.6-2.8 2.7-1.3 2.5-1.7 4-0.6 3.2-0.6 4.9 0.2 3.3 0.6 4.8 1 2.8 1.8 3.9 1.7 2 2.8 2.6 2.3 0.9 3.6 0.9c3 0 5.4-1.1 7.1-3.2s2.5-5.1 2.5-9z"/>
	<path class="st7" d="m442.4 74.4c0 0.6-0.2 1.2-0.5 1.7-0.4 0.5-1 0.7-1.9 0.7s-1.5-0.3-1.8-0.8-0.5-1-0.5-1.6v-36.4c0-0.6 0.2-1.2 0.5-1.6 0.4-0.5 0.9-0.7 1.7-0.8 0.8 0 1.4 0.2 1.8 0.7s0.6 1 0.6 1.7v4.4c0.8-2 2-3.7 3.6-5.1s3.7-2.1 6.1-2.1c1.8 0 3.5 0.3 5.2 0.9 1.6 0.6 3.1 1.6 4.3 3s2.2 3.1 2.9 5.2 1.1 4.7 1.1 7.6c0 2.4-0.3 4.7-1 6.7-0.6 2-1.5 3.7-2.7 5.1s-2.5 2.5-4.2 3.3c-1.6 0.8-3.4 1.2-5.4 1.2-2.4 0-4.5-0.6-6-1.7-1.6-1.1-2.9-2.7-3.8-4.8v12.7zm18.2-22.5c0-1.9-0.2-3.6-0.6-5.2s-1-2.9-1.7-4c-0.8-1.1-1.8-2-3-2.5-1.2-0.6-2.6-0.9-4.2-0.9-1.4 0-2.7 0.3-3.8 1s-2 1.6-2.8 2.7-1.3 2.5-1.7 4-0.6 3.2-0.6 4.9 0.2 3.3 0.6 4.8 1 2.8 1.8 3.9 1.7 2 2.8 2.6 2.3 0.9 3.6 0.9c3 0 5.4-1.1 7.1-3.2s2.5-5.1 2.5-9z"/>
</svg>
